<?xml version="1.0" encoding="utf-8"?>
<svg width="675.3242px" height="450.33997px" viewBox="0 0 675.3242 450.33997" version="1.1" xmlns:xlink="http://www.w3.org/1999/xlink" xmlns="http://www.w3.org/2000/svg">
  <g id="cicd">
    <path d="M45.21 246C42.8978 243.107 41.6987 239.481 41.83 235.78C41.91 233.15 42.83 227.12 46.36 226.97C47.1917 226.985 48.0102 227.18 48.76 227.54C53.0329 229.357 57.0341 231.757 60.65 234.67C62.46 236.09 64.21 237.6 65.91 239.15C67.61 240.7 69.1 242.71 70.91 243.84C73.29 239.57 76.66 235.61 79.5 231.59C82.54 227.277 85.5633 222.943 88.57 218.59C88.8773 217.975 89.4586 217.544 90.1357 217.427C90.8129 217.311 91.505 217.523 92 218C94.3 219.06 96.55 220.22 98.75 221.48C96.1559 226.789 93.1465 231.885 89.75 236.72C88.1 239.06 86.2 241.23 84.75 243.72L79.95 251.96C78.61 254.25 77.08 256.71 74.59 257.61C72.59 258.33 70.37 257.88 68.31 257.34C63.9087 256.188 59.6053 254.69 55.44 252.86C51.63 251.18 47.83 249.2 45.21 246Z" id="Path" fill="#FFCC99" stroke="none" />
    <path d="M67.74 257.07C67.27 257.24 66.8 256.66 66.88 256.16C67.0124 255.669 67.3225 255.245 67.75 254.97C71.2462 252.222 75.6615 250.916 80.09 251.32C79.2527 253.95 77.3285 256.095 74.8046 257.211C72.2807 258.328 69.3992 258.309 66.89 257.16" id="Path" fill="#C29E7A" stroke="none" />
    <path d="M71.64 248.84C71.7034 248.997 71.8027 249.138 71.93 249.25C72.0616 249.365 72.2456 249.4 72.41 249.34C72.64 249.23 72.68 248.91 72.66 248.66C72.542 247.74 72.2858 246.843 71.9 246C71.73 245.56 71.56 245.12 71.43 244.67C71.3674 244.332 71.2839 243.998 71.18 243.67C71.009 244.349 70.9582 245.053 71.03 245.75C71.0135 246.811 71.2214 247.864 71.64 248.84L71.64 248.84Z" id="Path" fill="#C29E7A" stroke="none" />
    <path d="M71.59 434.47C71.8075 433.047 72.3183 431.685 73.09 430.47C74.81 428.15 78.23 427.67 80.96 428.6C83.69 429.53 85.89 431.54 87.96 433.54C90.03 435.54 92.17 437.6 94.85 438.67C96.74 439.43 98.85 439.67 100.69 440.49C102.53 441.31 104.25 443.11 104.02 445.14C103.97 445.65 95.97 446.23 95.13 446.31C92.07 446.58 89 446.73 85.93 446.74C82.86 446.75 79.87 446.64 76.85 446.4C75.36 446.28 73.85 446.13 72.39 445.95C71.19 445.81 69.39 446.05 69.22 444.76C69.07 443.32 70.04 441.14 70.37 439.76L71.59 434.47Z" id="Path" fill="#13DCF2" stroke="none" />
    <path d="M69.82 442.07C75.69 443.24 81.75 442.46 87.73 442.66C92.95 442.83 98.22 443.74 103.38 442.92" id="Path" fill="none" fill-rule="evenodd" stroke="#351B6B" stroke-width="0.5" stroke-linecap="round" stroke-linejoin="round" />
    <path d="M84.41 433.1C83.9524 433.154 83.5535 433.437 83.35 433.85C83.1584 434.278 83.3452 434.781 83.77 434.98C84.1712 435.055 84.5847 434.941 84.89 434.67C86.07 433.84 87.07 432.67 88.42 432.21C88.8576 432.014 89.3508 431.982 89.81 432.12C90.2752 432.271 90.5628 432.736 90.49 433.22C90.3543 433.608 90.0084 433.884 89.6 433.93C89.1987 433.962 88.795 433.918 88.41 433.8C87.1101 433.405 85.7668 433.17 84.41 433.1L84.41 433.1Z" id="Path" fill="none" fill-rule="evenodd" stroke="#351B6B" stroke-width="0.5" stroke-linecap="round" stroke-linejoin="round" />
    <path d="M86.63 435.56C88.1751 434.849 89.9122 434.67 91.57 435.05" id="Path" fill="none" fill-rule="evenodd" stroke="#351B6B" stroke-width="0.5" stroke-linecap="round" stroke-linejoin="round" />
    <path d="M87.82 437C89.5424 436.379 91.3973 436.221 93.2 436.54" id="Path" fill="none" fill-rule="evenodd" stroke="#351B6B" stroke-width="0.5" stroke-linecap="round" stroke-linejoin="round" />
    <path d="M89.42 438.15C90.7337 437.448 92.2299 437.162 93.71 437.33" id="Path" fill="none" fill-rule="evenodd" stroke="#351B6B" stroke-width="0.5" stroke-linecap="round" stroke-linejoin="round" />
    <path d="M62.05 295.12C73.26 339.81 83.05 385.78 86.05 431.66C83.05 431.39 79.7 432.07 76.76 431.56C73.5 431 72.94 428.36 71.58 425.56C67.6773 417.755 64.3647 409.669 61.67 401.37C58.57 391.13 57 380.27 58.6 369.7C59.08 366.52 59.81 363.12 58.46 360.2C57.46 358.04 55.46 356.53 53.67 355.02C40.5012 344.014 31.3914 328.92 27.79 312.14C27.18 309.33 26.88 306.51 26.48 303.66C26.11 301.04 24.89 299.24 24.1 296.73L24.61 298.35" id="Path" fill="#281450" stroke="none" />
    <path d="M37.82 299.3C42.31 316.88 47.22 335.23 59.54 348.55C61.38 350.55 63.41 352.47 64.49 354.96C65.79 357.96 65.49 361.42 65.31 364.71C64.6418 376.451 65.5907 388.228 68.13 399.71C69.3 404.98 71.48 409.76 72.77 414.89C74.16 420.44 75.46 426.03 76.71 431.62" id="Path" fill="none" fill-rule="evenodd" stroke="#46248F" stroke-width="1" />
    <path d="M12.94 434.48C13.1984 433.073 13.7467 431.734 14.55 430.55C16.34 428.28 19.77 427.9 22.47 428.91C25.17 429.92 27.32 431.99 29.34 434.05C31.36 436.11 33.44 438.23 36.08 439.38C37.96 440.19 40.08 440.47 41.87 441.38C43.66 442.29 45.35 444.1 45.07 446.12C45 446.63 36.99 446.99 36.15 447.04C33.09 447.22 30.01 447.28 26.94 447.2C23.87 447.12 20.89 446.93 17.87 446.6C16.39 446.44 14.87 446.25 13.42 446.03C12.24 445.85 10.42 446.03 10.29 444.74C10.16 443.45 11.22 441.15 11.58 439.74C12 438 12.49 436.23 12.94 434.48Z" id="Path" fill="#13DCF2" stroke="none" />
    <path d="M25.37 434.71C24.9966 434.909 24.7539 435.288 24.73 435.71C24.7738 435.975 24.9226 436.212 25.1427 436.366C25.3628 436.52 25.6358 436.579 25.9 436.53C26.4246 436.434 26.9164 436.207 27.33 435.87C28.5526 434.982 29.9007 434.281 31.33 433.79C31.8429 433.595 32.3951 433.527 32.94 433.59C33.4964 433.656 33.9798 434.004 34.22 434.51C34.3576 434.819 34.2987 435.181 34.07 435.43C33.7206 435.646 33.2885 435.679 32.91 435.52C31.47 435.16 30.04 434.79 28.6 434.44C27.63 434.2 26.15 433.93 25.37 434.71Z" id="Path" fill="none" fill-rule="evenodd" stroke="#351B6B" stroke-width="0.5" stroke-linecap="round" stroke-linejoin="round" />
    <path d="M29.13 437.4C29.8518 437.047 30.6466 436.869 31.45 436.88C32.2516 436.892 33.0509 436.969 33.84 437.11" id="Path" fill="none" fill-rule="evenodd" stroke="#351B6B" stroke-width="0.5" stroke-linecap="round" stroke-linejoin="round" />
    <path d="M31.17 438.38C32.4372 438.154 33.7228 438.046 35.01 438.06" id="Path" fill="none" fill-rule="evenodd" stroke="#351B6B" stroke-width="0.5" stroke-linecap="round" stroke-linejoin="round" />
    <path d="M33 439.7C34.047 439.358 35.1388 439.173 36.24 439.15" id="Path" fill="none" fill-rule="evenodd" stroke="#351B6B" stroke-width="0.5" stroke-linecap="round" stroke-linejoin="round" />
    <path d="M10.81 442.36C21.7962 444.162 32.9342 444.868 44.06 444.47" id="Path" fill="none" fill-rule="evenodd" stroke="#351B6B" stroke-width="0.5" stroke-linecap="round" stroke-linejoin="round" />
    <path d="M43.05 295.26C42.61 309.333 41.8467 323.387 40.76 337.42C39.39 355.07 38.26 358.91 35.63 386.24C35.63 386.59 34.73 394.48 33.01 410.24C32.72 412.94 32.23 417.38 31.31 423.24C30.65 427.45 30 430.94 29.51 433.42C26.747 432.564 23.8951 432.027 21.01 431.82C18.92 431.67 16.96 432 14.89 431.75C13.49 420.26 12.09 408.75 12.52 397.16C12.95 385.57 15.29 373.92 20.95 363.84C21.9 362.15 22.95 360.41 22.95 358.48C22.95 356.55 21.81 354.6 20.76 352.85C12.4243 338.73 8.82554 322.312 10.49 306C10.99 301 12.36 297.46 14.23 293" id="Path" fill="#351B6B" stroke="none" />
    <path d="M22.09 298.76C20.7103 312.34 21.6093 326.056 24.75 339.34C25.89 344.17 27.33 348.96 27.66 353.91C28.14 361.05 26.28 368.1 24.76 375.09C20.71 393.64 19.76 412.25 18.96 431.09" id="Path" fill="none" fill-rule="evenodd" stroke="#46248F" stroke-width="1" />
    <path d="M34 305.21C29.4963 305.218 25.0023 304.792 20.58 303.94C18.97 303.62 17.37 303.15 15.78 302.72C14.19 302.29 11 302.17 10.56 300.14C10.21 298.51 11.05 297.19 11.56 295.76C12.07 294.33 12.32 292.6 12.84 291.06C13.9118 288.035 15.1709 285.079 16.61 282.21C19.31 276.56 22.25 270.81 22.9 264.49C23.48 258.92 22.24 253.34 21.78 247.76C21.32 242.18 21.83 236.12 25.32 231.76C27.85 228.58 31.82 226.4 35.53 224.88C39.24 223.36 44.18 224.83 47.84 226.39C58.93 231.1 61.72 243.11 60.19 254C59.5 258.91 58.31 263.75 57.97 268.7C57.23 279.7 60.75 290.5 64.23 300.98C64.23 300.98 59.62 301.81 59.23 301.9C56.92 302.43 54.61 302.9 52.23 303.35C47.4854 304.256 42.684 304.834 37.86 305.08C36.62 305.167 35.3333 305.21 34 305.21Z" id="Path" fill="#FF9800" stroke="none" />
    <path d="M23.84 255.14C26.4873 260.442 29.6207 265.487 33.2 270.21C35 272.77 37 275.45 40 276.63C43.25 277.94 46.93 277.1 50.33 276.25C52.98 275.702 55.5503 274.822 57.98 273.63C58.61 273.29 59.28 272.8 59.34 272.09C59.4 271.38 58.75 270.74 58.17 270.28L32.28 249.61C28.51 246.61 24.54 243.32 22.7 238.73C21.95 236.85 21.46 236.8 20.79 238.86C20.2109 241.13 20.2109 243.51 20.79 245.78C21.4133 249.015 22.4379 252.159 23.84 255.14Z" id="Path" fill="#D87F09" stroke="none" />
    <path d="M48.86 229.84C48.86 230.61 48.8 231.14 48.8 231.14C44.474 230.658 40.2516 229.493 36.29 227.69C35.6587 227.485 35.1226 227.059 34.78 226.49C34.6166 226.035 34.5719 225.547 34.65 225.07C35.0233 220.63 35.39 216.193 35.75 211.76C35.7621 211.019 35.7287 210.277 35.65 209.54C35.6653 208.483 35.7454 207.427 35.89 206.38C36.05 204.24 36.19 202.1 36.36 199.96C36.53 197.82 38.77 195.67 41.08 196.09C43.08 196.45 44.2 198.43 44.96 200.27C47.1 205.43 47.79 210.67 48.37 216.21C48.65 218.877 48.87 221.543 49.03 224.21C49.05 224.71 48.93 228 48.86 229.84Z" id="Path" fill="#FFCC99" stroke="none" />
    <path d="M49.11 225.79C46.4464 225.305 44.0428 223.887 42.33 221.79C40.5152 219.667 39.4875 216.983 39.42 214.19L39.51 214.3C40.5552 215.585 41.9416 216.548 43.51 217.08C44.2849 217.345 45.0923 217.503 45.91 217.55C46.3195 217.58 46.7305 217.58 47.14 217.55C47.41 217.55 47.95 217.28 48.14 217.48C48.2456 217.602 48.3149 217.751 48.34 217.91C48.6897 219.22 48.9206 220.559 49.03 221.91C49.11 223.19 49 224.49 49.11 225.79Z" id="Path" fill="#C29E7A" stroke="none" />
    <path d="M62.34 209.4C62.8511 211.853 62.4531 214.409 61.22 216.59C60.0258 218.291 58.2451 219.492 56.22 219.96C51.58 221.22 45.32 220.18 41.69 216.96C41.31 216.63 40.95 216.28 40.6 215.96C37.0011 211.973 35.1058 206.736 35.32 201.37C35.3226 197.473 36.4929 193.666 38.68 190.44C40.9133 187.209 44.4367 185.105 48.34 184.67C51.5628 184.381 54.7443 185.56 57 187.88C58.87 189.88 59.77 192.99 60.5 195.57C61.6867 200.085 62.3048 204.731 62.34 209.4Z" id="Path" fill="#FFCC99" stroke="none" />
    <path d="M13.7 174C10.9829 176.032 9.14718 179.027 8.57 182.37C8.02961 185.674 7.88526 189.031 8.14 192.37C8.39266 195.719 8.16026 199.087 7.45 202.37C6.8452 204.63 5.82814 206.759 4.45 208.65C3.80346 209.631 3.0376 210.528 2.17 211.32C1.38578 211.797 0.657846 212.36 0 213C3.2 214.49 6 215.95 8.37 218.68C9.48478 219.952 10.4294 221.364 11.18 222.88C11.5647 223.634 11.8988 224.412 12.18 225.21C12.27 225.48 12.99 227.36 12.79 227.54C17.9603 222.554 20.9417 215.721 21.08 208.54C21.17 201.16 18.22 193.88 19.08 186.54C19.1718 184.821 19.7858 183.171 20.84 181.81C21.7969 180.689 23.283 180.169 24.73 180.45C26.04 180.77 27.01 182.31 28.38 182.27C28.9233 182.184 29.4094 181.884 29.7291 181.437C30.0488 180.989 30.1752 180.432 30.08 179.89C29.8468 178.806 29.2375 177.839 28.36 177.16C25.1 174.16 21.72 171.61 16.99 172.62C15.813 172.858 14.6949 173.327 13.7 174Z" id="Path" fill="#351B6B" stroke="none" />
    <path d="M29 187.2C28.2627 185.45 27.4005 183.756 26.42 182.13L26.42 182.27C26.2486 181.202 26.5705 180.114 27.2955 179.311C28.0204 178.509 29.0702 178.078 30.15 178.14C31.47 179.42 32.78 180.83 34.15 182.14" id="Path" fill="#13DCF2" stroke="none" />
    <path d="M45.22 195C45.22 194.53 45.22 194.06 45.28 193.6C45.2877 193.061 45.2272 192.524 45.1 192C45.03 191.69 44.87 190.57 44.59 190.4C47.0767 191.924 49.8393 192.944 52.72 193.4C54.1782 193.628 55.6554 193.712 57.13 193.65C58.4836 193.672 59.8233 193.374 61.04 192.78C62.93 191.63 62.23 188.28 61.57 186.65C60.6761 184.534 59.1898 182.721 57.29 181.43C54.2523 179.526 50.7954 178.393 47.22 178.13C44.2743 177.723 41.2819 177.797 38.36 178.35C35.423 178.912 32.7227 180.344 30.61 182.46C28.4693 184.871 27.0943 187.865 26.66 191.06C26.2634 193.922 26.1462 196.815 26.31 199.7C26.2885 202.26 26.8421 204.792 27.93 207.11C29.246 209.872 31.803 211.838 34.81 212.4C35.6271 212.569 36.478 212.411 37.18 211.96C37.903 211.22 38.268 210.201 38.18 209.17C38.18 207.68 38.02 206.17 38.18 204.71C38.3024 203.203 39.1097 201.835 40.37 201C41.11 200.57 42 200.45 42.76 200C43.8089 199.355 44.5629 198.325 44.86 197.13C45.0556 196.435 45.1763 195.721 45.22 195L45.22 195Z" id="Path" fill="#351B6B" stroke="none" />
    <path d="M49.77 202.89C49.7466 203.142 49.6644 203.385 49.53 203.6C49.3918 203.819 49.1582 203.96 48.9 203.98C48.5941 203.968 48.3104 203.817 48.13 203.57C47.7309 202.999 47.521 202.317 47.53 201.62C47.4981 201.331 47.5219 201.04 47.6 200.76C47.6746 200.478 47.8787 200.248 48.15 200.14C49.38 199.72 49.86 202.17 49.77 202.89Z" id="Path" fill="#351B6B" stroke="none" />
    <path d="M50 197.2C49.2034 196.662 48.1857 196.574 47.3085 196.967C46.4314 197.36 45.8194 198.178 45.69 199.13" id="Path" fill="none" fill-rule="evenodd" stroke="#351B6B" stroke-width="0.5" stroke-linecap="round" stroke-linejoin="round" />
    <path d="M59.31 201.21C59.2926 201.467 59.21 201.714 59.07 201.93C58.9278 202.14 58.7018 202.279 58.45 202.31C58.1424 202.296 57.8583 202.141 57.68 201.89C57.2767 201.32 57.0633 200.638 57.07 199.94C57.0377 199.655 57.0614 199.366 57.14 199.09C57.2225 198.81 57.4234 198.58 57.69 198.46C58.93 198 59.4 200.49 59.31 201.21Z" id="Path" fill="#351B6B" stroke="none" />
    <path d="M55.13 196.33C55.6065 195.689 56.3272 195.273 57.121 195.182C57.9148 195.091 58.7108 195.333 59.32 195.85" id="Path" fill="none" fill-rule="evenodd" stroke="#351B6B" stroke-width="0.5" stroke-linecap="round" stroke-linejoin="round" />
    <path d="M56.84 212.85C55.3992 213.332 53.8408 213.332 52.4 212.85C50.9661 212.354 49.729 211.411 48.87 210.16C48.6049 209.855 48.4878 209.449 48.55 209.05C50.8918 210.075 53.5824 209.919 55.79 208.63C55.7898 210.101 56.1503 211.55 56.84 212.85L56.84 212.85Z" id="Path" fill="#FFFFFF" stroke="none" />
    <path d="M56.16 203.18C56.714 203.549 57.2359 203.963 57.72 204.42C58.2011 204.891 58.4246 205.565 58.32 206.23C58.1949 206.707 57.8707 207.108 57.43 207.33C56.3956 207.776 55.1923 207.519 54.43 206.69C53.6973 205.853 53.2584 204.8 53.18 203.69C53.0949 202.863 53.0648 202.031 53.09 201.2C53.0747 200.943 53.1052 200.686 53.18 200.44C53.3 200.12 53.71 199.78 54.06 200.01C54.41 200.24 54.28 200.64 54.38 200.91C54.7299 201.829 55.3506 202.621 56.16 203.18Z" id="Path" fill="#F2862C" stroke="none" />
    <path d="M38.55 199.72C37.6895 198.298 35.9998 197.608 34.39 198.02C33.0435 198.667 32.1012 199.934 31.87 201.41C31.4947 202.768 31.4947 204.202 31.87 205.56C32.2674 206.919 33.203 208.057 34.46 208.71C35.7501 209.35 37.288 209.227 38.46 208.39C40.7 206.68 39.9 201.74 38.55 199.72Z" id="Path" fill="#FFCC99" stroke="none" />
    <path d="M36.64 201.07C36.5486 200.85 36.3335 200.706 36.095 200.706C35.8565 200.706 35.6414 200.85 35.55 201.07C35.1036 201.685 34.907 202.446 35 203.2C35.0933 203.959 35.3491 204.689 35.75 205.34C35.8879 205.637 36.1018 205.892 36.37 206.08C36.6377 206.277 37.0023 206.277 37.27 206.08C37.5185 205.759 37.5185 205.311 37.27 204.99C37.04 204.67 36.7 204.44 36.47 204.12C36.2579 203.825 36.1238 203.481 36.08 203.12C36.0382 202.788 36.0382 202.452 36.08 202.12C36.08 202.01 36.08 201.88 36.22 201.82C36.3636 201.764 36.5262 201.83 36.59 201.97C36.6212 202.112 36.6212 202.258 36.59 202.4C36.59 202.62 36.59 203.03 36.9 203.05C37.21 203.07 37.15 202.92 37.16 202.73C37.1619 202.136 36.9803 201.557 36.64 201.07L36.64 201.07Z" id="Path" fill="#573C20" stroke="none" />
    <path d="M136.83 249.78L84.22 249.78C83.4358 249.78 82.8 249.144 82.8 248.36L82.8 248.36C82.8 247.576 83.4358 246.94 84.22 246.94L136.83 246.94C137.612 246.945 138.245 247.578 138.25 248.36L138.25 248.36C138.245 249.142 137.612 249.775 136.83 249.78L136.83 249.78Z" id="Path" fill="#351B6B" stroke="none" />
    <path d="M120.83 215.56C121.614 215.56 122.25 216.196 122.25 216.98L122.25 245.53C122.25 246.314 121.614 246.95 120.83 246.95L84.2199 246.95C83.4356 246.95 82.8 246.314 82.8 245.53L82.8 216.98C82.8 216.196 83.4356 215.56 84.2199 215.56L120.83 215.56Z" id="Rectangle" fill="#46248F" stroke="none" />
    <path d="M119.4 217.54C119.974 217.54 120.44 218.006 120.44 218.58L120.44 243.92C120.44 244.494 119.974 244.96 119.4 244.96L88.52 244.96C87.9456 244.96 87.48 244.494 87.48 243.92L87.48 218.58C87.48 218.006 87.9456 217.54 88.52 217.54L119.4 217.54Z" id="Rectangle" fill="#FFFFFF" stroke="none" />
    <path d="M117.05 219.45C117.796 219.45 118.4 220.054 118.4 220.8L118.4 220.9C118.4 221.646 117.796 222.25 117.05 222.25L91.8896 222.25C91.1441 222.25 90.54 221.646 90.54 220.9L90.54 220.8C90.54 220.054 91.1441 219.45 91.8896 219.45L117.05 219.45Z" id="Rectangle" fill="#46248F" stroke="none" />
    <path d="M111.93 225.49L116.39 225.49C117.169 225.49 117.8 226.121 117.8 226.9L117.8 240.75C117.8 241.529 117.169 242.16 116.39 242.16L111.93 242.16C111.151 242.16 110.52 241.529 110.52 240.75L110.52 226.9C110.525 226.124 111.154 225.495 111.93 225.49L111.93 225.49Z" id="Path" fill="#13DCF2" stroke="none" />
    <path d="M115.68 229.52L113.08 229.52C112.62 229.515 112.25 229.14 112.25 228.68L112.25 228.68C112.25 228.222 112.622 227.85 113.08 227.85L115.68 227.85C116.138 227.85 116.51 228.222 116.51 228.68L116.51 228.68C116.51 229.14 116.14 229.515 115.68 229.52L115.68 229.52Z" id="Path" fill="#FFFFFF" stroke="none" />
    <path d="M115.68 232.85L113.08 232.85C112.62 232.845 112.25 232.47 112.25 232.01L112.25 232.01C112.25 231.552 112.622 231.18 113.08 231.18L115.68 231.18C115.9 231.18 116.111 231.267 116.267 231.423C116.423 231.579 116.51 231.79 116.51 232.01L116.51 232.01C116.51 232.47 116.14 232.845 115.68 232.85L115.68 232.85Z" id="Path" fill="#FFFFFF" stroke="none" />
    <path d="M115.68 236.18L113.08 236.18C112.62 236.175 112.25 235.8 112.25 235.34L112.25 235.34C112.25 234.882 112.622 234.51 113.08 234.51L115.68 234.51C116.138 234.51 116.51 234.882 116.51 235.34L116.51 235.34C116.51 235.8 116.14 236.175 115.68 236.18Z" id="Path" fill="#FFFFFF" stroke="none" />
    <path d="M115.68 239.51L113.08 239.51C112.62 239.505 112.25 239.13 112.25 238.67L112.25 238.67C112.25 238.212 112.622 237.84 113.08 237.84L115.68 237.84C116.138 237.84 116.51 238.212 116.51 238.67L116.51 238.67C116.51 239.13 116.14 239.505 115.68 239.51L115.68 239.51Z" id="Path" fill="#FFFFFF" stroke="none" />
    <path d="M106.41 225.49C107.189 225.49 107.82 226.121 107.82 226.9L107.82 240.76C107.82 241.539 107.189 242.17 106.41 242.17L101.94 242.17C101.161 242.17 100.53 241.539 100.53 240.76L100.53 226.9C100.53 226.121 101.161 225.49 101.94 225.49L106.41 225.49Z" id="Rectangle" fill="#F2D06B" stroke="none" />
    <path d="M105.69 229.52L103.09 229.52C102.63 229.515 102.26 229.14 102.26 228.68L102.26 228.68C102.26 228.222 102.632 227.85 103.09 227.85L105.69 227.85C106.148 227.85 106.52 228.222 106.52 228.68L106.52 228.68C106.52 229.14 106.15 229.515 105.69 229.52L105.69 229.52Z" id="Path" fill="#FFFFFF" stroke="none" />
    <path d="M105.69 232.85L103.09 232.85C102.63 232.845 102.26 232.47 102.26 232.01L102.26 232.01C102.26 231.552 102.632 231.18 103.09 231.18L105.69 231.18C105.91 231.18 106.121 231.267 106.277 231.423C106.433 231.579 106.52 231.79 106.52 232.01L106.52 232.01C106.52 232.47 106.15 232.845 105.69 232.85L105.69 232.85Z" id="Path" fill="#FFFFFF" stroke="none" />
    <path d="M105.69 236.18L103.09 236.18C102.63 236.175 102.26 235.8 102.26 235.34L102.26 235.34C102.26 234.882 102.632 234.51 103.09 234.51L105.69 234.51C106.148 234.51 106.52 234.882 106.52 235.34L106.52 235.34C106.52 235.8 106.15 236.175 105.69 236.18Z" id="Path" fill="#FFFFFF" stroke="none" />
    <path d="M105.69 239.51L103.09 239.51C102.63 239.505 102.26 239.13 102.26 238.67L102.26 238.67C102.26 238.212 102.632 237.84 103.09 237.84L105.69 237.84C106.148 237.84 106.52 238.212 106.52 238.67L106.52 238.67C106.52 239.13 106.15 239.505 105.69 239.51L105.69 239.51Z" id="Path" fill="#FFFFFF" stroke="none" />
    <path d="M96.4198 225.49C97.1988 225.49 97.83 226.121 97.83 226.9L97.83 240.76C97.83 241.539 97.1988 242.17 96.4198 242.17L91.9502 242.17C91.1712 242.17 90.54 241.539 90.54 240.76L90.54 226.9C90.54 226.121 91.1712 225.49 91.9502 225.49L96.4198 225.49Z" id="Rectangle" fill="#9A8DF2" stroke="none" />
    <path d="M95.7 229.52L93.11 229.52C92.6483 229.515 92.2754 229.142 92.27 228.68L92.27 228.68C92.2755 228.22 92.65 227.85 93.11 227.85L95.7 227.85C96.1584 227.85 96.53 228.222 96.53 228.68L96.53 228.68C96.53 229.14 96.16 229.515 95.7 229.52L95.7 229.52Z" id="Path" fill="#FFFFFF" stroke="none" />
    <path d="M95.7 232.85L93.11 232.85C92.6483 232.845 92.2754 232.472 92.27 232.01L92.27 232.01C92.2755 231.55 92.65 231.18 93.11 231.18L95.7 231.18C96.1584 231.18 96.53 231.552 96.53 232.01L96.53 232.01C96.53 232.47 96.16 232.845 95.7 232.85Z" id="Path" fill="#FFFFFF" stroke="none" />
    <path d="M95.7 236.18L93.11 236.18C92.6483 236.175 92.2754 235.802 92.27 235.34L92.27 235.34C92.2755 234.88 92.65 234.51 93.11 234.51L95.7 234.51C96.1584 234.51 96.53 234.882 96.53 235.34L96.53 235.34C96.53 235.8 96.16 236.175 95.7 236.18Z" id="Path" fill="#FFFFFF" stroke="none" />
    <path d="M95.7 239.51L93.11 239.51C92.6483 239.505 92.2754 239.132 92.27 238.67L92.27 238.67C92.2755 238.21 92.65 237.84 93.11 237.84L95.7 237.84C96.1584 237.84 96.53 238.212 96.53 238.67L96.53 238.67C96.53 239.13 96.16 239.505 95.7 239.51L95.7 239.51Z" id="Path" fill="#FFFFFF" stroke="none" />
    <path d="M21.2 243.56C22.48 248.07 25.67 251.76 28.91 255.15C33.1942 259.611 37.7353 263.818 42.51 267.75C48.51 272.75 51.97 274.68 55.66 275.08C58.18 275.37 61.55 275.08 73.66 268.08C78.11 265.49 83.94 261.87 90.54 257.08C89.87 254.88 89.21 252.67 88.54 250.46L58.18 260.34C53.91 255.18 49.61 250.05 45.41 244.84C41.8786 240.195 37.5761 236.19 32.69 233C30.05 231.39 25.56 229.92 23.18 232.63C20.64 235.54 20.18 240 21.2 243.56Z" id="Path" fill="#FFCC99" stroke="none" />
    <path d="M56.86 266.67C56.86 267.02 56.99 267.45 57.33 267.52C57.5356 267.547 57.7396 267.459 57.86 267.29C57.9766 267.12 58.0519 266.924 58.08 266.72C58.47 264.6 57.37 262.33 58.14 260.32C57.7339 261.212 57.3995 262.135 57.14 263.08C56.8723 264.257 56.778 265.466 56.86 266.67Z" id="Path" fill="#C29E7A" stroke="none" />
    <path d="M57.29 270.2C57.8584 270.319 58.3737 270.617 58.76 271.05C59.1332 271.501 59.2738 272.1 59.14 272.67C58.6352 271.75 57.7424 271.107 56.71 270.92C55.6844 270.764 54.6415 271.059 53.85 271.73C53.83 270.39 56.41 270 57.29 270.2Z" id="Path" fill="#C29E7A" stroke="none" />
    <path d="M91.91 249.79C93.3371 249.902 94.7562 250.099 96.16 250.38C98.8036 250.845 101.505 250.882 104.16 250.49C105.333 250.227 106.528 250.076 107.73 250.04C108.999 250.046 110.202 250.609 111.02 251.58C111.379 251.967 111.538 252.499 111.45 253.02C111.342 253.404 111.016 253.687 110.62 253.74C110.282 253.754 109.945 253.714 109.62 253.62C107.89 253.417 106.139 253.767 104.62 254.62C103.077 255.493 101.457 256.223 99.78 256.8C98.1131 257.215 96.3968 257.396 94.68 257.34L91.65 257.34C91.35 257.34 89.23 257.09 89.11 257.34C89.3188 256.73 89.1853 256.055 88.76 255.57C88.39 255.11 87.91 254.8 87.56 254.3C86.7549 253.054 87.0619 251.395 88.26 250.52C89.3604 249.874 90.6459 249.617 91.91 249.79L91.91 249.79Z" id="Path" fill="#FFCC99" stroke="none" />
    <path d="M105.71 252.94C104.492 253.174 103.345 253.687 102.36 254.44C102.258 254.501 102.169 254.583 102.1 254.68C102.023 254.78 102.023 254.92 102.1 255.02C102.23 255.15 102.45 255.02 102.61 254.96C103.644 254.319 104.786 253.871 105.98 253.64C106.583 253.519 107.195 253.452 107.81 253.44C108.299 253.485 108.791 253.485 109.28 253.44C108.126 253.077 106.919 252.908 105.71 252.94L105.71 252.94Z" id="Path" fill="#C29E7A" stroke="none" />
    <path d="M100 216.51C100.532 217.058 101.261 217.372 102.025 217.381C102.789 217.391 103.525 217.095 104.07 216.56C104.437 216.958 104.954 217.184 105.495 217.184C106.036 217.184 106.553 216.958 106.92 216.56C107.512 216.913 108.174 217.132 108.86 217.2C109.563 217.246 110.219 216.846 110.5 216.2C110.608 215.695 110.507 215.169 110.22 214.74C109.164 212.902 106.896 212.149 104.95 212.99C103.82 212.07 102.191 212.095 101.09 213.05C100.634 212.625 100.011 212.426 99.3932 212.509C98.7751 212.593 98.2271 212.949 97.9 213.48C97.186 212.836 96.1288 212.749 95.32 213.27C94.5265 213.792 94.0203 214.653 93.95 215.6C94.5171 215.572 95.0856 215.588 95.65 215.65C96.21 215.78 96.46 216.36 96.88 216.65C97.3394 217.012 97.9167 217.19 98.5 217.15C98.63 217.16 100.13 216.67 100 216.51Z" id="Path" fill="#FFCC99" stroke="none" />
    <path d="M99.29 214.76C99.6961 215.253 99.9343 215.862 99.97 216.5C100.192 215.802 100.077 215.041 99.66 214.44C99.3892 214.044 99.0009 213.743 98.55 213.58C98.4382 213.532 98.3205 213.498 98.2 213.48C98.11 213.48 97.99 213.4 98.03 213.53C98.07 213.66 98.25 213.72 98.32 213.78L98.64 214.07C98.8743 214.283 99.0916 214.513 99.29 214.76L99.29 214.76Z" id="Path" fill="#C29E7A" stroke="none" />
    <path d="M103.12 214.41C103.635 215.045 103.955 215.816 104.04 216.63C104.258 215.755 104.004 214.83 103.37 214.19C102.773 213.565 101.978 213.165 101.12 213.06C101.43 213.25 101.8 213.33 102.12 213.53C102.495 213.772 102.832 214.068 103.12 214.41Z" id="Path" fill="#C29E7A" stroke="none" />
    <path d="M106.4 214.55C106.825 215.127 107.037 215.834 107 216.55C107.273 215.794 107.188 214.956 106.77 214.27C106.38 213.599 105.7 213.148 104.93 213.05C105.501 213.463 105.999 213.97 106.4 214.55L106.4 214.55Z" id="Path" fill="#C29E7A" stroke="none" />
    <path d="M319.9 228.16L319.9 175.25" id="Path" fill="none" fill-rule="evenodd" stroke="#13DCF2" stroke-width="2" />
    <path d="M311.22 186.37L319.9 175.25L327.52 186.37" id="Path" fill="none" fill-rule="evenodd" stroke="#13DCF2" stroke-width="2" />
    <path d="M341.53 176.77L341.53 228.16" id="Path" fill="none" fill-rule="evenodd" stroke="#13DCF2" stroke-width="2" />
    <path d="M350.21 217.04L341.53 228.16L333.91 217.04" id="Path" fill="none" fill-rule="evenodd" stroke="#13DCF2" stroke-width="2" />
    <path d="M480.41 106.86L547.23 106.86C549.719 106.86 552.107 107.85 553.866 109.611C555.626 111.372 556.613 113.761 556.61 116.25L556.61 200.74" id="Path" fill="none" fill-rule="evenodd" stroke="#13DCF2" stroke-width="2" />
    <path d="M489.14 99.84L480.41 106.86L489.14 114.14" id="Path" fill="none" fill-rule="evenodd" stroke="#13DCF2" stroke-width="2" />
    <path d="M574.75 213.44L574.75 101.56C574.75 96.3796 570.55 92.18 565.37 92.18L483.21 92.18" id="Path" fill="none" fill-rule="evenodd" stroke="#13DCF2" stroke-width="2" />
    <path d="M581.77 204.71L574.75 213.44L567.47 204.71" id="Path" fill="none" fill-rule="evenodd" stroke="#13DCF2" stroke-width="2" />
    <path d="M176.06 119.16L119.25 119.16C114.066 119.166 109.866 123.366 109.86 128.55L109.86 178" id="Path" fill="none" fill-rule="evenodd" stroke="#13DCF2" stroke-width="2" />
    <path d="M167.34 112.14L176.06 119.16L167.34 126.44" id="Path" fill="none" fill-rule="evenodd" stroke="#13DCF2" stroke-width="2" />
    <path d="M91.73 190.74L91.73 113.87C91.7273 111.381 92.7144 108.992 94.4738 107.231C96.2332 105.47 98.6205 104.48 101.11 104.48L176.11 104.48" id="Path" fill="none" fill-rule="evenodd" stroke="#13DCF2" stroke-width="2" />
    <path d="M84.71 182.02L91.73 190.74L99 182.02" id="Path" fill="none" fill-rule="evenodd" stroke="#13DCF2" stroke-width="2" />
    <path d="M251.48 449.75C246.854 437.126 237.178 427 224.777 421.807C212.376 416.613 198.371 416.821 186.13 422.38C183.35 413.23 172.85 407.89 163.36 409.01C153.87 410.13 145.64 416.54 140.12 424.34C134.6 432.14 131.35 441.34 128.18 450.34" id="Path" fill="#F2D06B" stroke="none" />
    <path d="M526.17 448.1C524.53 437.46 521.17 426.71 513.96 418.68C506.75 410.65 495.2 405.92 484.96 409.16C482.48 396.11 470.34 386.3 457.28 383.88C444.22 381.46 430.66 385.39 419.09 391.88C407.9 398.18 397.48 408.01 395.63 420.71C385.111 416.746 373.428 417.255 363.294 422.12C353.16 426.985 345.455 435.783 341.97 446.47" id="Path" fill="#F2D06B" stroke="none" />
    <path d="M369.49 339.97L387.5 339.97L387.5 349.71L369.49 349.71L369.49 339.97Z" id="Rectangle" fill="#9A8DF2" stroke="none" />
    <path d="M369.49 404.09L387.5 404.09L387.5 413.83L369.49 413.83L369.49 404.09Z" id="Rectangle" fill="#9A8DF2" stroke="none" />
    <path d="M276.36 375.24L294.37 375.24L294.37 384.98L276.36 384.98L276.36 375.24Z" id="Rectangle" fill="#9A8DF2" stroke="none" />
    <path d="M363.778 247.67C368.883 247.67 373.02 251.807 373.02 256.912L373.02 428.038C373.02 433.143 368.883 437.28 363.778 437.28L299.482 437.28C294.377 437.28 290.24 433.143 290.24 428.038L290.24 256.912C290.24 251.807 294.377 247.67 299.482 247.67L363.778 247.67Z" id="Rectangle" fill="#8680A0" stroke="none" />
    <path d="M299.48 437.28L309.44 437.28L309.44 446.04L299.48 446.04L299.48 437.28Z" id="Rectangle" fill="#8680A0" stroke="none" />
    <path d="M354.04 437.28L364 437.28L364 446.04L354.04 446.04L354.04 437.28Z" id="Rectangle" fill="#8680A0" stroke="none" />
    <path d="M358.57 264.13C361.37 264.13 363.64 266.4 363.64 269.2L363.64 280.99C363.64 283.79 361.37 286.06 358.57 286.06L302.85 286.06C300.05 286.06 297.78 283.79 297.78 280.99L297.78 269.2C297.78 266.4 300.05 264.13 302.85 264.13L358.57 264.13Z" id="Rectangle" fill="#FFFFFF" stroke="none" />
    <path d="M359 275.1C359 277.497 357.057 279.44 354.66 279.44C352.263 279.44 350.32 277.497 350.32 275.1C350.32 272.703 352.263 270.76 354.66 270.76C357.057 270.76 359 272.703 359 275.1Z" id="Path" fill="#F2D06B" stroke="none" />
    <path d="M304.24 270.76L346.2 270.76L346.2 273.06L304.24 273.06L304.24 270.76Z" id="Rectangle" fill="#F2D06B" stroke="none" />
    <path d="M304.24 275.89L346.2 275.89L346.2 278.19L304.24 278.19L304.24 275.89Z" id="Rectangle" fill="#F2D06B" stroke="none" />
    <path d="M358.57 299.17C361.37 299.17 363.64 301.44 363.64 304.24L363.64 316.03C363.64 318.83 361.37 321.1 358.57 321.1L302.85 321.1C300.05 321.1 297.78 318.83 297.78 316.03L297.78 304.24C297.78 301.44 300.05 299.17 302.85 299.17L358.57 299.17Z" id="Rectangle" fill="#FFFFFF" stroke="none" />
    <path d="M359 310.14C359 312.537 357.057 314.48 354.66 314.48C352.263 314.48 350.32 312.537 350.32 310.14C350.32 307.743 352.263 305.8 354.66 305.8C355.812 305.797 356.917 306.254 357.732 307.068C358.546 307.883 359.003 308.988 359 310.14L359 310.14Z" id="Path" fill="#13DCF2" stroke="none" />
    <path d="M304.24 305.8L346.2 305.8L346.2 308.1L304.24 308.1L304.24 305.8Z" id="Rectangle" fill="#13DCF2" stroke="none" />
    <path d="M304.24 310.93L346.2 310.93L346.2 313.23L304.24 313.23L304.24 310.93Z" id="Rectangle" fill="#13DCF2" stroke="none" />
    <path d="M358.57 334.21C361.37 334.21 363.64 336.48 363.64 339.28L363.64 351.07C363.64 353.87 361.37 356.14 358.57 356.14L302.85 356.14C300.05 356.14 297.78 353.87 297.78 351.07L297.78 339.28C297.78 336.48 300.05 334.21 302.85 334.21L358.57 334.21Z" id="Rectangle" fill="#FFFFFF" stroke="none" />
    <path d="M359 346.14C359 347.895 357.943 349.478 356.321 350.15C354.699 350.821 352.832 350.45 351.591 349.209C350.35 347.968 349.979 346.101 350.65 344.479C351.322 342.857 352.905 341.8 354.66 341.8C355.812 341.797 356.917 342.254 357.732 343.068C358.546 343.883 359.003 344.988 359 346.14L359 346.14Z" id="Path" fill="#9A8DF2" stroke="none" />
    <path d="M304.24 341.8L346.2 341.8L346.2 344.1L304.24 344.1L304.24 341.8Z" id="Rectangle" fill="#9A8DF2" stroke="none" />
    <path d="M304.24 346.93L346.2 346.93L346.2 349.23L304.24 349.23L304.24 346.93Z" id="Rectangle" fill="#9A8DF2" stroke="none" />
    <path d="M358.57 369.25C361.37 369.25 363.64 371.52 363.64 374.32L363.64 386.11C363.64 388.91 361.37 391.18 358.57 391.18L302.85 391.18C300.05 391.18 297.78 388.91 297.78 386.11L297.78 374.32C297.78 371.52 300.05 369.25 302.85 369.25L358.57 369.25Z" id="Rectangle" fill="#FFFFFF" stroke="none" />
    <path d="M359 380.21C359 382.607 357.057 384.55 354.66 384.55C352.263 384.55 350.32 382.607 350.32 380.21C350.32 377.813 352.263 375.87 354.66 375.87C357.057 375.87 359 377.813 359 380.21Z" id="Path" fill="#F2D06B" stroke="none" />
    <path d="M304.24 375.87L346.2 375.87L346.2 378.17L304.24 378.17L304.24 375.87Z" id="Rectangle" fill="#F2D06B" stroke="none" />
    <path d="M304.24 381L346.2 381L346.2 383.3L304.24 383.3L304.24 381Z" id="Rectangle" fill="#F2D06B" stroke="none" />
    <path d="M358.57 400.33C361.37 400.33 363.64 402.6 363.64 405.4L363.64 417.19C363.64 419.99 361.37 422.26 358.57 422.26L302.85 422.26C300.05 422.26 297.78 419.99 297.78 417.19L297.78 405.4C297.78 402.6 300.05 400.33 302.85 400.33L358.57 400.33Z" id="Rectangle" fill="#FFFFFF" stroke="none" />
    <path d="M359 411C359 412.755 357.943 414.338 356.321 415.01C354.699 415.681 352.832 415.31 351.591 414.069C350.35 412.828 349.979 410.961 350.65 409.339C351.322 407.717 352.905 406.66 354.66 406.66C357.057 406.66 359 408.603 359 411L359 411Z" id="Path" fill="#9A8DF2" stroke="none" />
    <path d="M304.24 406.66L346.2 406.66L346.2 408.96L304.24 408.96L304.24 406.66Z" id="Rectangle" fill="#9A8DF2" stroke="none" />
    <path d="M304.24 411.79L346.2 411.79L346.2 414.09L304.24 414.09L304.24 411.79Z" id="Rectangle" fill="#9A8DF2" stroke="none" />
    <path d="M272.178 331.32C277.283 331.32 281.42 335.457 281.42 340.562L281.42 428.048C281.42 433.153 277.283 437.29 272.178 437.29L207.882 437.29C202.777 437.29 198.64 433.153 198.64 428.048L198.64 340.562C198.64 335.457 202.777 331.32 207.882 331.32L272.178 331.32Z" id="Rectangle" fill="#8680A0" stroke="none" />
    <path d="M207.77 437.28L217.73 437.28L217.73 446.04L207.77 446.04L207.77 437.28Z" id="Rectangle" fill="#8680A0" stroke="none" />
    <path d="M262.33 437.28L272.29 437.28L272.29 446.04L262.33 446.04L262.33 437.28Z" id="Rectangle" fill="#8680A0" stroke="none" />
    <path d="M265.971 339.97C267.788 339.97 269.26 341.442 269.26 343.259L269.26 422.741C269.26 424.558 267.788 426.03 265.971 426.03L212.499 426.03C210.682 426.03 209.21 424.558 209.21 422.741L209.21 343.259C209.21 341.442 210.682 339.97 212.499 339.97L265.971 339.97Z" id="Rectangle" fill="#FFFFFF" stroke="none" />
    <path d="M207.77 349.71L271.49 349.71L271.49 351.75L207.77 351.75L207.77 349.71Z" id="Rectangle" fill="#46248F" stroke="none" />
    <path d="M249.23 354.71L230.83 354.71C228.465 354.71 226.546 352.795 226.54 350.43L226.54 350.43C226.54 348.061 228.461 346.14 230.83 346.14L249.23 346.14C251.599 346.14 253.52 348.061 253.52 350.43L253.52 350.43C253.514 352.795 251.595 354.71 249.23 354.71L249.23 354.71Z" id="Path" fill="#46248F" stroke="none" />
    <path d="M207.77 382.28L271.49 382.28L271.49 384.32L207.77 384.32L207.77 382.28Z" id="Rectangle" fill="#46248F" stroke="none" />
    <path d="M249.23 387.59L230.83 387.59C229.692 387.59 228.601 387.138 227.797 386.333C226.992 385.529 226.54 384.438 226.54 383.3L226.54 383.3C226.54 380.931 228.461 379.01 230.83 379.01L249.23 379.01C251.599 379.01 253.52 380.931 253.52 383.3L253.52 383.3C253.52 384.438 253.068 385.529 252.263 386.333C251.459 387.138 250.368 387.59 249.23 387.59L249.23 387.59Z" id="Path" fill="#46248F" stroke="none" />
    <path d="M207.77 411.92L271.49 411.92L271.49 413.96L207.77 413.96L207.77 411.92Z" id="Rectangle" fill="#46248F" stroke="none" />
    <path d="M249.23 417.23L230.83 417.23C228.461 417.23 226.54 415.309 226.54 412.94L226.54 412.94C226.54 410.571 228.461 408.65 230.83 408.65L249.23 408.65C251.599 408.65 253.52 410.571 253.52 412.94L253.52 412.94C253.52 414.078 253.068 415.169 252.263 415.973C251.459 416.778 250.368 417.23 249.23 417.23L249.23 417.23Z" id="Path" fill="#46248F" stroke="none" />
    <path d="M224.71 367C224.704 368.777 223.26 370.214 221.483 370.21C219.706 370.206 218.268 368.764 218.27 366.987C218.272 365.21 219.713 363.77 221.49 363.77C222.346 363.77 223.166 364.111 223.77 364.717C224.375 365.323 224.713 366.144 224.71 367L224.71 367Z" id="Path" fill="#F2D06B" stroke="none" />
    <path d="M233.76 367C233.76 368.306 232.973 369.484 231.766 369.984C230.559 370.484 229.17 370.208 228.246 369.284C227.322 368.36 227.046 366.971 227.546 365.764C228.046 364.557 229.224 363.77 230.53 363.77C231.387 363.767 232.211 364.107 232.817 364.713C233.423 365.319 233.763 366.143 233.76 367Z" id="Path" fill="#F2D06B" stroke="none" />
    <path d="M251.48 367C251.48 368.784 250.034 370.23 248.25 370.23C246.466 370.23 245.02 368.784 245.02 367C245.02 365.216 246.466 363.77 248.25 363.77C250.034 363.77 251.48 365.216 251.48 367Z" id="Path" fill="#F2D06B" stroke="none" />
    <path d="M261 367C261 368.307 260.212 369.486 259.004 369.985C257.796 370.484 256.405 370.206 255.482 369.28C254.56 368.355 254.286 366.964 254.789 365.757C255.292 364.55 256.473 363.766 257.78 363.77C258.636 363.77 259.456 364.111 260.06 364.717C260.665 365.323 261.003 366.144 261 367Z" id="Path" fill="#13DCF2" stroke="none" />
    <path d="M242.8 367C242.8 368.307 242.012 369.486 240.804 369.985C239.596 370.484 238.205 370.206 237.283 369.28C236.36 368.355 236.086 366.964 236.589 365.757C237.092 364.55 238.273 363.766 239.58 363.77C240.436 363.77 241.256 364.111 241.86 364.717C242.465 365.323 242.803 366.144 242.8 367Z" id="Path" fill="#9A8DF2" stroke="none" />
    <path d="M224.71 398.6C224.704 400.377 223.26 401.814 221.483 401.81C219.706 401.806 218.268 400.364 218.27 398.587C218.272 396.81 219.713 395.37 221.49 395.37C222.346 395.37 223.166 395.711 223.77 396.317C224.375 396.923 224.713 397.744 224.71 398.6L224.71 398.6Z" id="Path" fill="#9A8DF2" stroke="none" />
    <path d="M233.76 398.6C233.76 399.906 232.973 401.084 231.766 401.584C230.559 402.084 229.17 401.808 228.246 400.884C227.322 399.96 227.046 398.571 227.546 397.364C228.046 396.157 229.224 395.37 230.53 395.37C231.387 395.367 232.211 395.707 232.817 396.313C233.423 396.919 233.763 397.743 233.76 398.6Z" id="Path" fill="#13DCF2" stroke="none" />
    <path d="M251.48 398.6C251.48 400.384 250.034 401.83 248.25 401.83C246.466 401.83 245.02 400.384 245.02 398.6C245.02 396.816 246.466 395.37 248.25 395.37C250.034 395.37 251.48 396.816 251.48 398.6L251.48 398.6Z" id="Path" fill="#F2D06B" stroke="none" />
    <path d="M261 398.6C261 399.907 260.212 401.086 259.004 401.585C257.796 402.084 256.405 401.806 255.482 400.88C254.56 399.955 254.286 398.564 254.789 397.357C255.292 396.15 256.473 395.366 257.78 395.37C258.636 395.37 259.456 395.711 260.06 396.317C260.665 396.923 261.003 397.744 261 398.6Z" id="Path" fill="#13DCF2" stroke="none" />
    <path d="M242.8 398.6C242.8 399.907 242.012 401.086 240.804 401.585C239.596 402.084 238.205 401.806 237.283 400.88C236.36 399.955 236.086 398.564 236.589 397.357C237.092 396.15 238.273 395.366 239.58 395.37C240.436 395.37 241.256 395.711 241.86 396.317C242.465 396.923 242.803 397.744 242.8 398.6Z" id="Path" fill="#F2D06B" stroke="none" />
    <path d="M456.398 292.07C461.503 292.07 465.64 296.207 465.64 301.312L465.64 428.038C465.64 433.143 461.503 437.28 456.398 437.28L392.102 437.28C386.997 437.28 382.86 433.143 382.86 428.038L382.86 301.312C382.86 296.207 386.997 292.07 392.102 292.07L456.398 292.07Z" id="Rectangle" fill="#8680A0" stroke="none" />
    <path d="M391.99 437.28L401.95 437.28L401.95 446.04L391.99 446.04L391.99 437.28Z" id="Rectangle" fill="#8680A0" stroke="none" />
    <path d="M446.55 437.28L456.51 437.28L456.51 446.04L446.55 446.04L446.55 437.28Z" id="Rectangle" fill="#8680A0" stroke="none" />
    <path d="M406.492 305.8C409.059 305.8 411.14 307.881 411.14 310.448L411.14 421.982C411.14 424.549 409.059 426.63 406.492 426.63L398.888 426.63C396.321 426.63 394.24 424.549 394.24 421.982L394.24 310.448C394.24 307.881 396.321 305.8 398.888 305.8L406.492 305.8Z" id="Rectangle" fill="#FFFFFF" stroke="none" />
    <path d="M406.13 314.42C406.134 315.837 405.284 317.116 403.976 317.661C402.669 318.206 401.162 317.909 400.159 316.908C399.156 315.908 398.854 314.402 399.395 313.093C399.937 311.784 401.213 310.93 402.63 310.93C403.557 310.927 404.448 311.294 405.104 311.949C405.761 312.603 406.13 313.493 406.13 314.42Z" id="Path" fill="#13DCF2" stroke="none" />
    <path d="M429.182 305.8C431.749 305.8 433.83 307.881 433.83 310.448L433.83 421.982C433.83 424.549 431.749 426.63 429.182 426.63L421.578 426.63C419.011 426.63 416.93 424.549 416.93 421.982L416.93 310.448C416.93 307.881 419.011 305.8 421.578 305.8L429.182 305.8Z" id="Rectangle" fill="#FFFFFF" stroke="none" />
    <path d="M428.88 314.42C428.884 315.837 428.034 317.116 426.726 317.661C425.419 318.206 423.912 317.909 422.909 316.908C421.906 315.908 421.604 314.402 422.145 313.093C422.687 311.784 423.963 310.93 425.38 310.93C427.309 310.93 428.874 312.491 428.88 314.42Z" id="Path" fill="#F2D06B" stroke="none" />
    <path d="M451.862 305.8C454.429 305.8 456.51 307.881 456.51 310.448L456.51 421.982C456.51 424.549 454.429 426.63 451.862 426.63L444.258 426.63C441.691 426.63 439.61 424.549 439.61 421.982L439.61 310.448C439.61 307.881 441.691 305.8 444.258 305.8L451.862 305.8Z" id="Rectangle" fill="#FFFFFF" stroke="none" />
    <path d="M452.3 314.42C452.304 315.837 451.453 317.117 450.144 317.662C448.835 318.206 447.327 317.907 446.325 316.905C445.323 315.903 445.024 314.395 445.568 313.086C446.113 311.777 447.393 310.926 448.81 310.93C449.736 310.93 450.623 311.298 451.278 311.952C451.932 312.607 452.3 313.494 452.3 314.42L452.3 314.42Z" id="Path" fill="#9A8DF2" stroke="none" />
    <path d="M282.099 0C284.061 0 285.65 1.58947 285.65 3.55078L285.65 72.6092C285.65 74.5705 284.061 76.16 282.099 76.16L159.851 76.16C157.889 76.16 156.3 74.5705 156.3 72.6092L156.3 3.55078C156.3 1.58947 157.889 0 159.851 0L282.099 0Z" id="Rectangle" fill="#FF9800" stroke="none" />
    <path d="M161.44 14.2L279.61 14.2L279.61 69.54C279.61 70.1917 279.082 70.72 278.43 70.72L162.62 70.72C161.968 70.72 161.44 70.1917 161.44 69.54L161.44 14.2Z" id="Path" fill="#FFFFFF" stroke="none" />
    <path d="M246.44 9.52L163.78 9.52C162.488 9.52 161.44 8.47235 161.44 7.18L161.44 7.18C161.44 6.55939 161.687 5.9642 162.125 5.52537C162.564 5.08653 163.159 4.84 163.78 4.84L246.44 4.84C247.061 4.83733 247.658 5.083 248.098 5.52242C248.537 5.96184 248.783 6.55858 248.78 7.18L248.78 7.18C248.78 7.80061 248.533 8.39579 248.095 8.83463C247.656 9.27347 247.061 9.52 246.44 9.52Z" id="Path" fill="#FFFFFF" stroke="none" />
    <path d="M264.58 7.18C264.584 8.13139 264.014 8.99135 263.136 9.35823C262.258 9.72512 261.246 9.52654 260.572 8.85524C259.898 8.18394 259.695 7.17238 260.058 6.29302C260.421 5.41366 261.279 4.84001 262.23 4.84C263.524 4.83999 264.574 5.88604 264.58 7.18Z" id="Path" fill="#13DCF2" stroke="none" />
    <path d="M272.42 7.18C272.424 8.13139 271.854 8.99135 270.976 9.35823C270.098 9.72512 269.086 9.52654 268.412 8.85524C267.738 8.18394 267.535 7.17238 267.898 6.29302C268.261 5.41366 269.119 4.84001 270.07 4.84C271.364 4.83999 272.414 5.88604 272.42 7.18L272.42 7.18Z" id="Path" fill="#F2D06B" stroke="none" />
    <path d="M279.61 7.18C279.61 8.12644 279.04 8.97969 278.165 9.34188C277.291 9.70407 276.285 9.50387 275.615 8.83463C274.946 8.16539 274.746 7.15892 275.108 6.28452C275.47 5.41012 276.324 4.84 277.27 4.84C278.562 4.84 279.61 5.88765 279.61 7.18Z" id="Path" fill="#9A8DF2" stroke="none" />
    <path d="M249 19.4L272.61 19.4C273.919 19.4 274.98 20.4611 274.98 21.77L274.98 63.16C274.98 64.4689 273.919 65.53 272.61 65.53L253.61 65.53C252.404 65.5271 251.392 64.6188 251.26 63.42L246.6 22C246.534 21.3274 246.759 20.6587 247.217 20.1621C247.676 19.6655 248.324 19.3882 249 19.4L249 19.4Z" id="Path" fill="#9A8DF2" stroke="none" />
    <path d="M250.79 25.71L251.94 34.87C252.063 36.0768 253.077 36.996 254.29 37L268.72 37C270.029 37 271.09 35.9389 271.09 34.63L271.09 25.42C271.09 24.1111 270.029 23.05 268.72 23.05L253.14 23.05C252.461 23.0506 251.815 23.3422 251.366 23.8509C250.917 24.3595 250.707 25.0364 250.79 25.71L250.79 25.71Z" id="Path" fill="#FFFFFF" stroke="none" />
    <path d="M252.91 42.42L254.63 60.05C254.754 61.2644 255.779 62.1863 257 62.18L269.34 62.18C270.643 62.18 271.7 61.1234 271.7 59.82L271.7 42.19C271.7 40.885 270.645 39.8255 269.34 39.82L255.26 39.82C254.592 39.8194 253.955 40.1019 253.507 40.5975C253.059 41.0931 252.842 41.7554 252.91 42.42Z" id="Path" fill="#FFFFFF" stroke="none" />
    <path d="M197.419 38.97C198.828 38.97 199.97 40.1118 199.97 41.5208L199.97 62.8492C199.97 64.2582 198.828 65.4 197.419 65.4L169.711 65.4C168.302 65.4 167.16 64.2582 167.16 62.8492L167.16 41.5208C167.16 40.1118 168.302 38.97 169.711 38.97L197.419 38.97Z" id="Rectangle" fill="#F2D06B" stroke="none" />
    <path d="M182.09 42.59C182.797 42.59 183.37 43.1631 183.37 43.8703L183.37 60.2297C183.37 60.9369 182.797 61.51 182.09 61.51L172.19 61.51C171.483 61.51 170.91 60.9369 170.91 60.2297L170.91 43.8703C170.91 43.1631 171.483 42.59 172.19 42.59L182.09 42.59Z" id="Rectangle" fill="#FFFFFF" stroke="none" />
    <path d="M195.13 42.59C195.837 42.59 196.41 43.1631 196.41 43.8703L196.41 49.6597C196.41 50.3669 195.837 50.94 195.13 50.94L186.81 50.94C186.103 50.94 185.53 50.3669 185.53 49.6597L185.53 43.8703C185.53 43.1631 186.103 42.59 186.81 42.59L195.13 42.59Z" id="Rectangle" fill="#FFFFFF" stroke="none" />
    <path d="M194.94 53.16C195.647 53.16 196.22 53.7331 196.22 54.4403L196.22 60.2297C196.22 60.9369 195.647 61.51 194.94 61.51L186.62 61.51C185.913 61.51 185.34 60.9369 185.34 60.2297L185.34 54.4403C185.34 53.7331 185.913 53.16 186.62 53.16L194.94 53.16Z" id="Rectangle" fill="#FFFFFF" stroke="none" />
    <path d="M197.419 18.19C198.828 18.19 199.97 19.3318 199.97 20.7408L199.97 33.6692C199.97 35.0782 198.828 36.22 197.419 36.22L169.711 36.22C168.302 36.22 167.16 35.0782 167.16 33.6692L167.16 20.7408C167.16 19.3318 168.302 18.19 169.711 18.19L197.419 18.19Z" id="Rectangle" fill="#9A8DF2" stroke="none" />
    <path d="M193.581 23.05C194.889 23.05 195.95 24.1105 195.95 25.4191L195.95 28.9909C195.95 30.2995 194.889 31.36 193.581 31.36L173.549 31.36C172.241 31.36 171.18 30.2995 171.18 28.9909L171.18 25.4191C171.18 24.1105 172.241 23.05 173.549 23.05L193.581 23.05Z" id="Rectangle" fill="#FFFFFF" stroke="none" />
    <path d="M206 21.54L204.28 62.93C204.256 63.574 204.494 64.2002 204.942 64.6643C205.389 65.1285 206.006 65.3905 206.65 65.39L242.43 65.39C243.106 65.3919 243.75 65.104 244.199 64.5992C244.649 64.0943 244.86 63.4211 244.78 62.75L239.87 21.36C239.733 20.1669 238.721 19.2672 237.52 19.27L208.4 19.27C207.115 19.2473 206.049 20.2562 206 21.54L206 21.54Z" id="Path" fill="#13DCF2" stroke="none" />
    <path d="M211 25.35L210 59.07C209.984 59.7098 210.226 60.3292 210.672 60.7883C211.118 61.2474 211.73 61.5075 212.37 61.51L218.9 61.51C220.209 61.51 221.27 60.4489 221.27 59.14L221.27 25.42C221.27 24.1111 220.209 23.05 218.9 23.05L213.36 23.05C212.082 23.0548 211.038 24.0724 211 25.35Z" id="Path" fill="#FFFFFF" stroke="none" />
    <path d="M225.26 25.42L225.26 59.14C225.26 60.4489 226.321 61.51 227.63 61.51L237.82 61.51C238.497 61.509 239.141 61.2188 239.59 60.7125C240.039 60.2061 240.25 59.532 240.17 58.86L236.17 25.14C236.028 23.9491 235.019 23.0517 233.82 23.05L227.67 23.05C227.035 23.0393 226.421 23.2842 225.968 23.7299C225.515 24.1755 225.26 24.7844 225.26 25.42L225.26 25.42Z" id="Path" fill="#FFFFFF" stroke="none" />
    <path d="M204.31 156.29C192.387 138.253 193.587 114.556 207.272 97.8165C220.957 81.0769 243.943 75.1899 263.99 83.29C269.14 56.77 294.88 35.82 321.89 36.16C348.9 36.5 374.11 58.09 378.59 84.73C391.158 71.7809 409.702 66.5601 427.18 71.05C452.36 77.85 460.69 102.58 462.28 107.33C470.69 132.41 458.8 153.78 456.82 157.2" id="Path" fill="#00AAFF" stroke="none" />
    <path d="M500.109 140.88C502.071 140.88 503.66 142.469 503.66 144.431L503.66 213.489C503.66 215.451 502.071 217.04 500.109 217.04L377.861 217.04C375.899 217.04 374.31 215.451 374.31 213.489L374.31 144.431C374.31 142.469 375.899 140.88 377.861 140.88L500.109 140.88Z" id="Rectangle" fill="#46248F" stroke="none" />
    <path d="M379.45 155.08L497.62 155.08L497.62 210.41C497.62 211.062 497.092 211.59 496.44 211.59L380.64 211.59C379.988 211.59 379.46 211.062 379.46 210.41L379.46 155.08L379.45 155.08Z" id="Path" fill="#FFFFFF" stroke="none" />
    <path d="M464.45 145.71C465.743 145.71 466.79 146.757 466.79 148.05L466.79 148.05C466.79 149.343 465.743 150.39 464.45 150.39L381.79 150.39C380.497 150.39 379.45 149.343 379.45 148.05L379.45 148.05C379.45 146.757 380.497 145.71 381.79 145.71L464.45 145.71Z" id="Rectangle" fill="#FFFFFF" stroke="none" />
    <path d="M483.21 148.05C483.21 148.996 482.64 149.85 481.765 150.212C480.891 150.574 479.885 150.374 479.215 149.705C478.546 149.035 478.346 148.029 478.708 147.155C479.07 146.28 479.924 145.71 480.87 145.71C482.16 145.715 483.205 146.76 483.21 148.05L483.21 148.05Z" id="Path" fill="#13DCF2" stroke="none" />
    <path d="M490.41 148.05C490.414 149.002 489.843 149.863 488.964 150.229C488.085 150.595 487.072 150.395 486.398 149.722C485.725 149.048 485.525 148.035 485.891 147.156C486.257 146.277 487.118 145.706 488.07 145.71C489.36 145.715 490.405 146.76 490.41 148.05Z" id="Path" fill="#F2D06B" stroke="none" />
    <path d="M497.6 148.05C497.6 149.342 496.552 150.39 495.26 150.39C493.968 150.39 492.92 149.342 492.92 148.05C492.92 146.758 493.968 145.71 495.26 145.71C496.552 145.71 497.6 146.758 497.6 148.05L497.6 148.05Z" id="Path" fill="#9A8DF2" stroke="none" />
    <path d="M435.71 177.73L434.38 199.87C434.353 200.334 434.517 200.788 434.835 201.127C435.153 201.465 435.596 201.658 436.06 201.66L479.18 201.66C479.665 201.661 480.126 201.453 480.446 201.089C480.766 200.725 480.913 200.241 480.85 199.76L478 177.61C477.894 176.769 477.178 176.138 476.33 176.14L437.39 176.14C436.498 176.144 435.763 176.84 435.71 177.73Z" id="Path" fill="#13DCF2" stroke="none" />
    <path d="M452.76 184.49L452.76 191.24C452.759 191.622 452.96 191.977 453.289 192.172C453.617 192.367 454.025 192.374 454.36 192.19L461.92 188.03C462.316 187.832 462.551 187.413 462.514 186.972C462.476 186.531 462.174 186.158 461.75 186.03L454.19 183.44C453.855 183.325 453.486 183.382 453.2 183.591C452.915 183.8 452.751 184.136 452.76 184.49L452.76 184.49Z" id="Path" fill="#FFFFFF" stroke="none" />
    <path d="M444.58 169.62L449.27 172.7L455.07 171.21L450.38 168.13L444.58 169.62L444.58 169.62Z" id="Path" fill="#13DCF2" stroke="none" />
    <path d="M450.38 168.13L455.07 171.21L460.86 169.72L456.18 166.65L450.38 168.13L450.38 168.13Z" id="Path" fill="#FFFFFF" stroke="none" />
    <path d="M436.19 171.77C435.179 172.122 434.603 173.188 434.863 174.227C435.123 175.266 436.132 175.935 437.19 175.77L443.45 174.16L438.76 171.08L436.19 171.77Z" id="Path" fill="#13DCF2" stroke="none" />
    <path d="M438.79 171.1L443.48 174.18L449.27 172.7L444.58 169.62L438.79 171.1L438.79 171.1Z" id="Path" fill="#FFFFFF" stroke="none" />
    <path d="M474.5 162L468 163.62L472.69 166.7L475.55 165.96C476.159 165.807 476.663 165.383 476.92 164.81L476.92 164.81C477.226 164.086 477.094 163.25 476.581 162.655C476.068 162.059 475.262 161.805 474.5 162L474.5 162Z" id="Path" fill="#13DCF2" stroke="none" />
    <path d="M461.94 165.17L466.63 168.25L472.67 166.7L467.98 163.62L461.94 165.17L461.94 165.17Z" id="Path" fill="#FFFFFF" stroke="none" />
    <path d="M456.18 166.65L460.86 169.72L466.63 168.25L461.94 165.17L456.18 166.65L456.18 166.65Z" id="Path" fill="#13DCF2" stroke="none" />
    <path d="M412.881 159.69C414.924 159.69 416.58 161.346 416.58 163.389L416.58 163.391C416.58 165.434 414.924 167.09 412.881 167.09L389.039 167.09C386.996 167.09 385.34 165.434 385.34 163.391L385.34 163.389C385.34 161.346 386.996 159.69 389.039 159.69L412.881 159.69Z" id="Rectangle" fill="#F2D06B" stroke="none" />
    <path d="M414.45 163.39C414.45 164.224 413.774 164.9 412.94 164.9C412.106 164.9 411.43 164.224 411.43 163.39C411.43 162.556 412.106 161.88 412.94 161.88C413.774 161.88 414.45 162.556 414.45 163.39L414.45 163.39Z" id="Path" fill="#FFFFFF" stroke="none" />
    <path d="M412.88 179L389 179C386.955 178.994 385.3 177.335 385.3 175.29L385.3 175.29C385.3 173.247 386.957 171.59 389 171.59L412.84 171.59C414.883 171.59 416.54 173.247 416.54 175.29L416.54 175.29C416.546 177.322 414.912 178.978 412.88 179L412.88 179Z" id="Path" fill="#F2D06B" stroke="none" />
    <path d="M390.82 175.25C390.82 176.084 390.144 176.76 389.31 176.76C388.476 176.76 387.8 176.084 387.8 175.25C387.8 174.416 388.476 173.74 389.31 173.74C390.142 173.745 390.815 174.418 390.82 175.25L390.82 175.25Z" id="Path" fill="#FFFFFF" stroke="none" />
    <path d="M396.6 175.25C396.6 176.084 395.924 176.76 395.09 176.76C394.256 176.76 393.58 176.084 393.58 175.25C393.58 174.416 394.256 173.74 395.09 173.74C395.922 173.745 396.595 174.418 396.6 175.25L396.6 175.25Z" id="Path" fill="#FFFFFF" stroke="none" />
    <path d="M412.88 190.82L389 190.82C386.957 190.82 385.3 189.163 385.3 187.12L385.3 187.12C385.3 185.075 386.955 183.416 389 183.41L412.84 183.41C413.823 183.41 414.766 183.801 415.46 184.497C416.154 185.193 416.543 186.137 416.54 187.12L416.54 187.12C416.54 189.148 414.908 190.798 412.88 190.82L412.88 190.82Z" id="Path" fill="#9A8DF2" stroke="none" />
    <path d="M389.31 188.63C390.144 188.63 390.82 187.954 390.82 187.12C390.82 186.286 390.144 185.61 389.31 185.61C388.476 185.61 387.8 186.286 387.8 187.12C387.8 187.954 388.476 188.63 389.31 188.63Z" id="Oval" fill="#FFFFFF" stroke="none" />
    <path d="M414.77 187.12C414.77 187.954 414.094 188.63 413.26 188.63C412.426 188.63 411.75 187.954 411.75 187.12C411.75 186.286 412.426 185.61 413.26 185.61C414.092 185.615 414.765 186.288 414.77 187.12L414.77 187.12Z" id="Path" fill="#FFFFFF" stroke="none" />
    <path d="M412.88 202.68L389 202.68C386.957 202.68 385.3 201.023 385.3 198.98L385.3 198.98C385.3 196.937 386.957 195.28 389 195.28L412.84 195.28C413.822 195.277 414.765 195.666 415.459 196.361C416.154 197.055 416.543 197.998 416.54 198.98L416.54 198.98C416.54 201.008 414.908 202.658 412.88 202.68L412.88 202.68Z" id="Path" fill="#13DCF2" stroke="none" />
    <path d="M414.45 199C414.45 199.834 413.774 200.51 412.94 200.51C412.106 200.51 411.43 199.834 411.43 199C411.43 198.166 412.106 197.49 412.94 197.49C413.772 197.495 414.445 198.168 414.45 199L414.45 199Z" id="Path" fill="#FFFFFF" stroke="none" />
    <path d="M402.8 199C402.804 199.616 402.436 200.173 401.869 200.411C401.301 200.65 400.646 200.522 400.209 200.088C399.772 199.654 399.64 199 399.875 198.431C400.109 197.861 400.664 197.49 401.28 197.49C402.116 197.49 402.794 198.164 402.8 199L402.8 199Z" id="Path" fill="#FFFFFF" stroke="none" />
    <path d="M481.849 10.57C483.811 10.57 485.4 12.1595 485.4 14.1208L485.4 55.0692C485.4 57.0305 483.811 58.62 481.849 58.62L407.331 58.62C405.369 58.62 403.78 57.0305 403.78 55.0692L403.78 14.1208C403.78 12.1595 405.369 10.57 407.331 10.57L481.849 10.57Z" id="Rectangle" fill="#FF9800" stroke="none" />
    <path d="M409.5 23.22L479.31 23.22L479.31 50.7C479.31 52.0089 478.249 53.07 476.94 53.07L411.87 53.07C410.561 53.07 409.5 52.0089 409.5 50.7L409.5 23.22Z" id="Path" fill="#FFFFFF" stroke="none" />
    <path d="M456.84 19.36L410.84 19.36C409.78 19.36 408.92 18.5004 408.92 17.44L408.92 17.44C408.92 16.3796 409.78 15.52 410.84 15.52L456.84 15.52C457.9 15.52 458.76 16.3796 458.76 17.44L458.76 17.44C458.76 18.5004 457.9 19.36 456.84 19.36L456.84 19.36Z" id="Path" fill="#FFFFFF" stroke="none" />
    <path d="M467.29 17.41C467.29 18.5146 466.395 19.41 465.29 19.41C464.185 19.41 463.29 18.5146 463.29 17.41C463.29 16.3054 464.185 15.41 465.29 15.41C466.395 15.41 467.29 16.3054 467.29 17.41Z" id="Path" fill="#13DCF2" stroke="none" />
    <path d="M473.84 17.41C473.84 18.5146 472.945 19.41 471.84 19.41C470.735 19.41 469.84 18.5146 469.84 17.41C469.84 16.3054 470.735 15.41 471.84 15.41C472.945 15.41 473.84 16.3054 473.84 17.41Z" id="Path" fill="#F2D06B" stroke="none" />
    <path d="M479.85 17.41C479.85 18.5146 478.955 19.41 477.85 19.41C476.745 19.41 475.85 18.5146 475.85 17.41C475.85 16.3054 476.745 15.41 477.85 15.41C478.955 15.41 479.85 16.3054 479.85 17.41Z" id="Path" fill="#9A8DF2" stroke="none" />
    <path d="M424.06 38.42L427.06 28.64C426.086 28.3512 425.076 28.2064 424.06 28.21C419.772 28.21 415.906 30.7937 414.266 34.7559C412.626 38.718 413.535 43.2781 416.568 46.3089C419.602 49.3397 424.163 50.2441 428.123 48.6003C432.084 46.9564 434.664 43.0882 434.66 38.8C434.66 38.68 434.66 38.55 434.66 38.42L424.06 38.42Z" id="Path" fill="#9A8DF2" stroke="none" />
    <path d="M448.13 38.14L457.92 41.14C458.203 40.1651 458.348 39.1552 458.35 38.14C458.35 32.2858 453.604 27.54 447.75 27.54C441.896 27.54 437.15 32.2858 437.15 38.14C437.15 43.9942 441.896 48.74 447.75 48.74L448.13 48.74L448.13 38.14Z" id="Path" fill="#13DCF2" stroke="none" />
    <path d="M472.93 31.11L465.05 31.11C464.299 31.11 463.69 30.5011 463.69 29.75L463.69 29.75C463.69 28.9989 464.299 28.39 465.05 28.39L472.93 28.39C473.291 28.39 473.637 28.5333 473.892 28.7883C474.147 29.0434 474.29 29.3893 474.29 29.75L474.29 29.75C474.29 30.1107 474.147 30.4566 473.892 30.7117C473.637 30.9667 473.291 31.11 472.93 31.11L472.93 31.11Z" id="Path" fill="#F2D06B" stroke="none" />
    <path d="M472.93 36L465.05 36C464.299 36 463.69 35.3911 463.69 34.64L463.69 34.64C463.69 33.8889 464.299 33.28 465.05 33.28L472.93 33.28C473.291 33.28 473.637 33.4233 473.892 33.6783C474.147 33.9334 474.29 34.2793 474.29 34.64L474.29 34.64C474.29 35.0007 474.147 35.3466 473.892 35.6017C473.637 35.8567 473.291 36 472.93 36L472.93 36Z" id="Path" fill="#13DCF2" stroke="none" />
    <path d="M472.93 41.32L465.05 41.32C464.314 41.3203 463.712 40.7354 463.69 40L463.69 40C463.69 39.2489 464.299 38.64 465.05 38.64L472.93 38.64C473.291 38.64 473.637 38.7833 473.892 39.0383C474.147 39.2934 474.29 39.6393 474.29 40L474.29 40C474.268 40.7354 473.666 41.3203 472.93 41.32L472.93 41.32Z" id="Path" fill="#F2D06B" stroke="none" />
    <path d="M472.93 46.63L465.05 46.63C464.299 46.63 463.69 46.0211 463.69 45.27L463.69 45.27C463.69 44.5189 464.299 43.91 465.05 43.91L472.93 43.91C473.291 43.91 473.637 44.0533 473.892 44.3083C474.147 44.5634 474.29 44.9093 474.29 45.27L474.29 45.27C474.29 45.6307 474.147 45.9766 473.892 46.2317C473.637 46.4867 473.291 46.63 472.93 46.63L472.93 46.63Z" id="Path" fill="#9A8DF2" stroke="none" />
    <path d="M275.829 171.25C278.155 171.25 280.04 173.135 280.04 175.461L280.04 223.959C280.04 226.285 278.155 228.17 275.829 228.17L187.581 228.17C185.255 228.17 183.37 226.285 183.37 223.959L183.37 175.461C183.37 173.135 185.255 171.25 187.581 171.25L275.829 171.25Z" id="Rectangle" fill="#46248F" stroke="none" />
    <path d="M188.23 185.25L274.76 185.25L274.76 220.67C274.76 222.327 273.417 223.67 271.76 223.67L191.22 223.67C189.563 223.67 188.22 222.327 188.22 220.67L188.22 185.25L188.23 185.25Z" id="Path" fill="#FFFFFF" stroke="none" />
    <path d="M246.87 175.34C248.212 175.34 249.3 176.428 249.3 177.77L249.3 177.86C249.3 179.202 248.212 180.29 246.87 180.29L189.94 180.29C188.598 180.29 187.51 179.202 187.51 177.86L187.51 177.77C187.51 176.428 188.598 175.34 189.94 175.34L246.87 175.34Z" id="Rectangle" fill="#FFFFFF" stroke="none" />
    <path d="M259.86 177.77C259.811 179.099 258.702 180.142 257.372 180.109C256.042 180.077 254.986 178.981 255.002 177.651C255.018 176.321 256.1 175.251 257.43 175.25C258.796 175.277 259.882 176.404 259.86 177.77Z" id="Path" fill="#13DCF2" stroke="none" />
    <path d="M268 177.77C267.951 179.099 266.842 180.142 265.512 180.109C264.182 180.077 263.126 178.981 263.142 177.651C263.158 176.321 264.24 175.251 265.57 175.25C266.936 175.277 268.022 176.404 268 177.77L268 177.77Z" id="Path" fill="#F2D06B" stroke="none" />
    <path d="M275.43 177.77C275.381 179.101 274.27 180.144 272.939 180.109C271.608 180.075 270.552 178.976 270.572 177.644C270.591 176.313 271.679 175.245 273.01 175.25C273.665 175.263 274.288 175.536 274.742 176.009C275.196 176.481 275.443 177.115 275.43 177.77L275.43 177.77Z" id="Path" fill="#9A8DF2" stroke="none" />
    <path d="M239.42 194.06L239.42 213.13C239.421 214.197 238.585 215.077 237.52 215.13L223.68 215.76C223.136 215.782 222.606 215.581 222.214 215.203C221.821 214.826 221.6 214.305 221.6 213.76L221.33 194.07C221.33 192.965 222.225 192.07 223.33 192.07L237.45 192.07C238.539 192.086 239.415 192.971 239.42 194.06Z" id="Path" fill="#F2D06B" stroke="none" />
    <path d="M230.87 200.49C230.87 200.7 232.75 201 232.97 201.03C233.708 201.168 234.462 201.202 235.21 201.13C235.006 200.045 234.892 198.944 234.87 197.84C234.32 197.92 228.28 198.4 228.28 198.18C228.61 200.26 228.98 202.34 229.4 204.4C228.859 204.07 228.243 203.881 227.61 203.85C226.968 203.835 226.352 204.106 225.93 204.59C225.423 205.345 225.403 206.326 225.88 207.1C226.53 208.28 227.843 208.934 229.177 208.743C230.511 208.552 231.587 207.555 231.88 206.24C232.03 205.264 231.927 204.265 231.58 203.34C231.225 202.423 230.987 201.466 230.87 200.49L230.87 200.49Z" id="Path" fill="#FFFFFF" stroke="none" />
    <path d="M266.63 213.6L266.63 194.54C266.631 193.473 265.795 192.593 264.73 192.54L250.89 191.91C250.346 191.888 249.816 192.089 249.424 192.467C249.031 192.844 248.81 193.365 248.81 193.91L248.53 213.61C248.53 214.715 249.425 215.61 250.53 215.61L264.65 215.61C265.751 215.599 266.636 214.701 266.63 213.6Z" id="Path" fill="#9A8DF2" stroke="none" />
    <path d="M263.05 204.06C259.801 205.943 256.674 208.03 253.69 210.31C253.93 206.78 254.11 203.24 254.23 199.71C257.086 201.325 260.03 202.778 263.05 204.06Z" id="Path" fill="#FFFFFF" stroke="none" />
    <path d="M195.85 193.7L195.85 213C195.854 213.997 196.635 214.817 197.63 214.87L211.71 215.5C212.215 215.525 212.709 215.342 213.077 214.995C213.445 214.648 213.655 214.166 213.66 213.66L213.95 193.73C213.958 193.229 213.765 192.745 213.413 192.388C213.061 192.031 212.581 191.83 212.08 191.83L197.72 191.83C196.687 191.83 195.85 192.667 195.85 193.7Z" id="Path" fill="#13DCF2" stroke="none" />
    <path d="M204.82 207C205.979 206.557 206.955 205.736 207.59 204.67C208.214 203.584 208.284 202.266 207.78 201.12C207.234 199.979 206.042 199.291 204.78 199.39C204.91 198.53 205.03 197.67 205.16 196.8C204.037 197.72 202.809 198.502 201.5 199.13C201.951 200.459 202.627 201.701 203.5 202.8C203.74 202.27 203.98 201.75 204.21 201.22C205.154 201.502 205.78 202.397 205.72 203.38C205.621 204.348 204.987 205.178 204.08 205.53C203.171 205.859 202.165 205.779 201.32 205.31L201.26 206.95C201.26 207.57 201.26 207.61 201.9 207.58C202.899 207.556 203.887 207.36 204.82 207Z" id="Path" fill="#FFFFFF" stroke="none" />
    <path d="M603.91 231.92C595.91 238.92 589.04 247.17 582.21 255.36L575.48 245C575.15 244.5 574.83 244 574.48 243.51C573.36 241.85 572.21 240.21 571.14 238.51C570.191 237.184 569.365 235.775 568.67 234.3C567.67 231.68 567.8 228.43 565.79 226.3C565.139 225.501 564.138 225.072 563.11 225.15C561.81 225.34 560.98 226.59 560.11 227.62C559.11 228.8 557.9 229.97 557.85 231.49C557.924 232.515 558.27 233.502 558.85 234.35C559.19 234.97 559.53 235.6 559.85 236.23C561.61 239.67 562.75 243.23 564.2 246.81C565.2 249.27 566.27 251.71 567.34 254.15C569.6 259.277 572.087 264.3 574.8 269.22C575.65 270.75 576.68 272.4 578.36 272.89C580.19 273.41 582.06 272.37 583.67 271.37L609.82 255.16" id="Path" fill="#AD7840" stroke="none" />
    <path d="M581.34 259.42C580.885 260.737 580.768 262.146 581 263.52C581.06 263.78 581.19 264.07 581.45 264.12C581.71 264.17 581.97 263.85 582.1 263.58C582.655 262.242 582.897 260.796 582.81 259.35C582.832 258.086 582.653 256.827 582.28 255.62C582.137 256.048 582.047 256.491 582.01 256.94C581.84 257.78 581.57 258.6 581.34 259.42Z" id="Path" fill="#573C20" stroke="none" />
    <path d="M580.87 268.44C581.601 268.741 582.062 269.471 582.02 270.26C581.643 269.701 581.04 269.335 580.37 269.26C579.7 269.203 579.03 269.364 578.46 269.72C578.612 269.339 578.848 268.997 579.15 268.72C579.641 268.347 580.286 268.242 580.87 268.44Z" id="Path" fill="#573C20" stroke="none" />
    <path d="M589.57 244.93C589.22 245.37 588.86 245.8 588.5 246.23C588.194 246.562 587.941 246.94 587.75 247.35C587.621 247.702 587.59 248.082 587.66 248.45C587.658 248.838 587.631 249.225 587.58 249.61C587.535 250.418 587.565 251.228 587.67 252.03C588.192 256.891 589.616 261.612 591.87 265.95C591.935 266.247 592.162 266.482 592.456 266.556C592.751 266.63 593.063 266.531 593.26 266.3L602.32 260.65C602.902 260.35 603.398 259.906 603.76 259.36C604.084 258.551 604.129 257.658 603.89 256.82C603.76 256 603.63 255.19 603.53 254.37C602.978 250.271 602.781 246.133 602.94 242C602.94 241.24 603.19 240.56 603.19 239.78C603.19 238.78 603.19 237.71 603.19 236.67C603.27 234.6 603.44 232.53 603.72 230.48C601.36 232.296 599.103 234.242 596.96 236.31C595.27 238.01 593.75 239.85 592.22 241.69L589.57 244.93Z" id="Path" fill="#1177CC" stroke="none" />
    <path d="M597.4 263.61C596.09 264.65 594.66 265.53 593.14 266.23C593.949 257.498 596.235 248.967 599.9 241L597.35 264.52" id="Path" fill="#1177CC" stroke="none" />
    <path d="M548.57 217.44L557.19 216.53C557.869 216.453 558.527 216.798 558.85 217.4L567.94 234.33C568.216 234.835 568.216 235.445 567.94 235.95L567.34 237.02C567.122 237.403 566.763 237.686 566.34 237.81L556.64 240.63C555.816 240.853 554.956 240.423 554.64 239.63L546.84 220.5C546.661 220.054 546.679 219.552 546.89 219.12L547.28 218.34C547.533 217.844 548.017 217.506 548.57 217.44Z" id="Path" fill="#9A8DF2" stroke="none" />
    <path d="M548.68 216.85L558.1 215.11C558.812 214.978 559.523 215.344 559.83 216L568.24 234.11C568.433 234.532 568.434 235.016 568.242 235.438C568.05 235.86 567.685 236.178 567.24 236.31L557.52 239.14C556.745 239.361 555.927 238.971 555.61 238.23L547.5 219C547.328 218.559 547.361 218.065 547.588 217.65C547.816 217.235 548.216 216.942 548.68 216.85L548.68 216.85Z" id="Path" fill="#351B6B" stroke="none" />
    <path d="M562.61 236.21C562.61 236.602 562.292 236.92 561.9 236.92C561.508 236.92 561.19 236.602 561.19 236.21C561.19 235.818 561.508 235.5 561.9 235.5C562.292 235.5 562.61 235.818 562.61 236.21Z" id="Path" fill="#FFFFFF" stroke="none" />
    <path d="M549.3 217.67L558.24 216.01C558.595 215.949 558.947 216.133 559.1 216.46L566.58 232.54C566.673 232.751 566.672 232.992 566.576 233.202C566.481 233.412 566.3 233.571 566.08 233.64L556.9 236.31C556.5 236.453 556.058 236.255 555.9 235.86L548.67 218.76C548.574 218.532 548.591 218.273 548.714 218.059C548.838 217.845 549.055 217.701 549.3 217.67L549.3 217.67Z" id="Path" fill="#FFFFFF" stroke="none" />
    <path d="M550.12 219.55L550.12 219.64C550.271 220.007 550.662 220.213 551.05 220.13L558.14 218.49C558.381 218.44 558.586 218.282 558.696 218.062C558.805 217.841 558.807 217.582 558.7 217.36L558.7 217.36C558.54 217.015 558.161 216.828 557.79 216.91L550.66 218.45C550.432 218.51 550.242 218.665 550.138 218.877C550.035 219.088 550.028 219.333 550.12 219.55Z" id="Path" fill="#13DCF2" stroke="none" />
    <path d="M555.76 230.23L557 233.6C557.17 234.062 557.667 234.315 558.14 234.18L563.82 232.6C564.092 232.525 564.316 232.332 564.43 232.075C564.544 231.817 564.537 231.522 564.41 231.27L562.87 228.27C562.673 227.88 562.234 227.677 561.81 227.78L556.43 229C556.17 229.061 555.948 229.231 555.82 229.465C555.692 229.7 555.67 229.978 555.76 230.23L555.76 230.23Z" id="Path" fill="#F2D06B" stroke="none" />
    <path d="M560.21 222.48L556.96 223.39L558.49 221.02C558.007 220.806 557.488 220.684 556.96 220.66C555.001 220.404 553.199 221.766 552.91 223.72C552.81 225.53 554.47 227.09 556.61 227.21C558.75 227.33 560.56 225.95 560.61 224.14C560.649 223.559 560.51 222.979 560.21 222.48Z" id="Path" fill="#9A8DF2" stroke="none" />
    <path d="M568.15 226.09C568.938 227.389 569.411 228.855 569.53 230.37C569.6 231.132 569.6 231.898 569.53 232.66C569.472 233.022 569.378 233.377 569.25 233.72C569.088 234.12 568.967 234.535 568.89 234.96C568.89 234.72 568.47 234.18 568.36 233.96C568.15 233.57 567.94 233.19 567.74 232.8C567.343 232.135 567.009 231.436 566.74 230.71C566.512 229.62 566.177 228.554 565.74 227.53C565.09 226.36 563.88 225.84 563.05 224.84C562.47 224.055 562.123 223.123 562.05 222.15C561.818 221.194 561.88 220.19 562.23 219.27C562.37 219 562.62 218.72 562.93 218.76C563.24 218.8 563.36 219.1 563.49 219.35C564.102 220.613 564.868 221.795 565.77 222.87C566.635 223.889 567.43 224.964 568.15 226.09L568.15 226.09Z" id="Path" fill="#AD7840" stroke="none" />
    <path d="M549.34 224.53C549.58 224.15 549.84 223.78 550.09 223.45C550.34 223.12 550.87 222.55 551.42 222.6C551.998 222.702 552.419 223.203 552.42 223.79C552.401 224.352 552.213 224.896 551.88 225.35C552.367 225.275 552.847 225.521 553.07 225.96C553.289 226.357 553.34 226.825 553.21 227.26C553.132 227.515 553.038 227.766 552.93 228.01C552.87 228.14 552.73 228.55 552.6 228.62C552.844 228.491 553.103 228.39 553.37 228.32C553.64 228.251 553.926 228.299 554.16 228.45C554.463 228.69 554.628 229.064 554.6 229.45C554.557 230.183 554.334 230.894 553.95 231.52C554.242 231.297 554.586 231.152 554.95 231.1C555.327 231.066 555.671 231.319 555.75 231.69C555.733 231.975 555.604 232.241 555.39 232.43C554.805 233.041 554.285 233.711 553.84 234.43C553.391 235.148 553.254 236.018 553.46 236.84C552.8 236.671 552.198 236.325 551.72 235.84C551.564 235.663 551.475 235.436 551.47 235.2C551.47 235.12 551.37 234.12 551.47 234.14C550.876 234.021 550.375 233.626 550.12 233.077C549.866 232.528 549.888 231.89 550.18 231.36C550.18 231.46 549.57 231.13 549.51 231.09C549.307 230.926 549.14 230.722 549.02 230.49C548.867 229.921 548.974 229.314 549.31 228.83C549.18 229.04 548.75 228.61 548.69 228.53C548.522 228.274 548.428 227.976 548.42 227.67C548.379 226.551 548.701 225.449 549.34 224.53L549.34 224.53Z" id="Path" fill="#AD7840" stroke="none" />
    <path d="M554 231.47C553.309 231.345 552.603 231.592 552.14 232.12C551.918 232.372 551.745 232.664 551.63 232.98C551.493 233.295 551.435 233.638 551.46 233.98C551.725 233.447 552.061 232.952 552.46 232.51C552.682 232.298 552.923 232.107 553.18 231.94C553.31 231.8 553.8 231.43 554 231.47Z" id="Path" fill="#573C20" stroke="none" />
    <path d="M550.29 231C550.827 229.958 551.658 229.095 552.68 228.52C552.019 228.636 551.424 228.992 551.01 229.52C550.591 230.033 550.302 230.641 550.17 231.29" id="Path" fill="#573C20" stroke="none" />
    <path d="M551.78 225.27C550.964 225.387 550.248 225.874 549.84 226.59C549.445 227.307 549.232 228.111 549.22 228.93C549.22 228.86 549.4 228.68 549.43 228.59C549.46 228.5 549.51 228.32 549.56 228.18C549.669 227.9 549.792 227.627 549.93 227.36C550.22 226.834 550.583 226.352 551.01 225.93C551.25 225.691 551.507 225.471 551.78 225.27Z" id="Path" fill="#573C20" stroke="none" />
    <path d="M586.13 426C582.97 429.779 578.78 432.558 574.07 434C572.13 434.58 570.07 435 568.43 436.19C566.15 437.91 565.29 440.9 564.57 443.68C564.38 444.4 564.24 445.3 564.81 445.79C565.21 446.066 565.697 446.187 566.18 446.13L594.36 446.13C594.839 446.179 595.321 446.078 595.74 445.84C596.197 445.402 596.451 444.793 596.44 444.16C597.107 438.28 597.523 432.38 597.69 426.46" id="Path" fill="#F2D06B" stroke="none" />
    <path d="M595.51 298.35C589.51 336.08 585.38 390.03 583.22 428.18C588.43 427.57 593.12 428.32 598.22 429.05C599.43 426.55 598.92 424.05 599.22 421.43C599.67 417.97 601.29 414.43 602.36 411.17L609.47 389.44C610.28 386.96 611.1 384.26 610.27 381.78C609.55 379.57 607.62 377.89 607.02 375.65C606.48 373.65 607.1 371.5 607.72 369.51L618.88 333.18C622.29 322.1 624.46 310.99 627.35 299.76" id="Path" fill="#281450" stroke="none" />
    <path d="M593.08 427.13C596.4 414.26 597.66 401.03 602.33 388.43C604.94 381.08 601.33 380.55 597.95 375.61C602.73 355.98 612.88 337.07 619.52 317.74" id="Path" fill="none" fill-rule="evenodd" stroke="#46248F" stroke-width="1" />
    <path d="M564.68 444.42C575.18 444.56 585.677 444.26 596.17 443.52" id="Path" fill="none" fill-rule="evenodd" stroke="#351B6B" stroke-width="0.5" stroke-linecap="round" stroke-linejoin="round" />
    <path d="M578.75 428.07C578.453 428.048 578.156 428.118 577.9 428.27C577.532 428.593 577.452 429.134 577.71 429.55C577.987 429.948 578.427 430.201 578.91 430.24C579.385 430.275 579.863 430.245 580.33 430.15C581.947 429.826 583.615 429.853 585.22 430.23C586.845 430.631 588.142 431.852 588.64 433.45C588.76 433.92 588.71 434.54 588.27 434.76C587.83 434.98 587.27 434.58 586.89 434.2L582.89 430.09C582.427 429.503 581.878 428.991 581.26 428.57C580.473 428.213 579.614 428.041 578.75 428.07L578.75 428.07Z" id="Path" fill="none" fill-rule="evenodd" stroke="#351B6B" stroke-width="0.5" stroke-linecap="round" stroke-linejoin="round" />
    <path d="M578.46 431.39C580.134 431.812 581.705 432.567 583.08 433.61" id="Path" fill="none" fill-rule="evenodd" stroke="#351B6B" stroke-width="0.5" stroke-linecap="round" stroke-linejoin="round" />
    <path d="M575.82 432.59C577.441 433.22 578.99 434.021 580.44 434.98" id="Path" fill="none" fill-rule="evenodd" stroke="#351B6B" stroke-width="0.5" stroke-linecap="round" stroke-linejoin="round" />
    <path d="M573.2 433.09C574.733 433.964 576.188 434.968 577.55 436.09" id="Path" fill="none" fill-rule="evenodd" stroke="#351B6B" stroke-width="0.5" stroke-linecap="round" stroke-linejoin="round" />
    <path d="M643.09 428.08C642.699 429.207 642.007 430.207 641.09 430.97C640.177 431.734 639.169 432.376 638.09 432.88C636.301 433.785 634.429 434.515 632.5 435.06C631.68 435.29 630.88 435.57 630.05 435.75C629.259 435.846 628.502 436.126 627.84 436.57C625.61 438.38 624.84 441.39 624.24 444.19C624.08 444.92 623.97 445.83 624.56 446.3C624.971 446.558 625.461 446.657 625.94 446.58L649.72 445.77C651.022 445.637 652.332 445.593 653.64 445.64C654.53 445.73 655.54 445.97 656.26 445.22C656.733 444.58 656.918 443.772 656.77 442.99C656.338 437.404 655.54 431.852 654.38 426.37" id="Path" fill="#F2D06B" stroke="none" />
    <path d="M612.12 301C619.7 339.25 631.12 392.12 639.4 430.23C644.52 428.68 650.53 427.6 655.83 428.28C654.83 418.44 654.27 408.57 653.74 398.7C653.39 392.21 654.94 382.61 650.63 377.17C649.49 375.73 647.91 374.69 646.83 373.22C645.06 370.82 644.83 367.65 644.71 364.67C644.17 352.47 643.953 340.267 644.06 328.06C644.17 316.62 645.59 305.16 644.47 293.78" id="Path" fill="#351B6B" stroke="none" />
    <path d="M638.36 308.82C639.43 318.23 639.24 328.05 639.92 337.58C640.64 347.82 641.49 358.057 642.47 368.29C642.77 371.48 643.13 374.8 644.87 377.49C645.93 379.13 647.45 380.49 648.42 382.15C649.69 384.38 649.87 387.05 650.02 389.62C650.78 402.353 651.543 415.08 652.31 427.8" id="Path" fill="none" fill-rule="evenodd" stroke="#46248F" stroke-width="1" />
    <path d="M624.67 444.29C628.279 444.708 631.92 444.762 635.54 444.45L656.36 443.34" id="Path" fill="none" fill-rule="evenodd" stroke="#351B6B" stroke-width="0.5" stroke-linecap="round" stroke-linejoin="round" />
    <path d="M637.11 430.3C636.778 430.16 636.395 430.209 636.11 430.43C635.8 430.75 636.05 431.31 636.41 431.58C637.3 432.23 638.54 431.94 639.63 431.75C641.013 431.499 642.426 431.462 643.82 431.64C644.707 431.693 645.56 432.006 646.27 432.54C646.606 432.8 646.828 433.18 646.89 433.6C646.934 434.016 646.714 434.414 646.34 434.6C646.008 434.687 645.657 434.663 645.34 434.53C643.879 434.048 642.542 433.253 641.42 432.2C640.167 431.212 638.684 430.558 637.11 430.3L637.11 430.3Z" id="Path" fill="none" fill-rule="evenodd" stroke="#351B6B" stroke-width="0.5" stroke-linecap="round" stroke-linejoin="round" />
    <path d="M635.44 432.89C637.036 433.271 638.576 433.86 640.02 434.64" id="Path" fill="none" fill-rule="evenodd" stroke="#351B6B" stroke-width="0.5" stroke-linecap="round" stroke-linejoin="round" />
    <path d="M631.23 434.64C633.008 434.852 634.676 435.614 636 436.82" id="Path" fill="none" fill-rule="evenodd" stroke="#351B6B" stroke-width="0.5" stroke-linecap="round" stroke-linejoin="round" />
    <path d="M634 433.88C635.436 434.462 636.799 435.21 638.06 436.11" id="Path" fill="none" fill-rule="evenodd" stroke="#351B6B" stroke-width="0.5" stroke-linecap="round" stroke-linejoin="round" />
    <path d="M645.76 269.72C645.89 273.05 646.02 276.39 646.12 279.72C646.287 285.007 646.413 290.303 646.5 295.61C646.54 298.277 646.57 300.927 646.59 303.56C646.59 304.08 646.66 310.48 646.59 310.48L644.06 310.64C633.513 311.307 622.953 311.483 612.38 311.17C607.1 311.017 601.827 310.76 596.56 310.4C594.42 310.24 592.99 310.26 593.12 307.78C593.25 305.14 593.44 302.51 593.63 299.87C594.363 289.39 595.313 278.927 596.48 268.48C597.233 261.813 598.073 255.18 599 248.58C599.7 243.58 599.34 236.34 602.33 232.14C603.165 231.096 604.248 230.278 605.48 229.76C614.85 224.99 626.9 223.16 636.48 228.18C638.7 229.34 640.86 230.18 642.3 232.53C643.74 234.88 643.93 237.53 644.12 240.25C644.8 250.083 645.347 259.907 645.76 269.72Z" id="Path" fill="#06B0F2" stroke="none" />
    <path d="M645.62 267.76C645.48 263.92 645.343 260.08 645.21 256.24C645.231 255.937 645.154 255.636 644.99 255.38C644.653 255.084 644.205 254.946 643.76 255C641.335 254.812 639.127 253.532 637.76 251.52C637.76 254.37 638.98 257.14 640.21 259.66C641.617 262.605 643.438 265.333 645.62 267.76L645.62 267.76Z" id="Path" fill="#0D68A0" stroke="none" />
    <path d="M613.23 230.11C613.042 230.823 613.165 231.583 613.57 232.2C614.081 232.638 614.75 232.848 615.42 232.78C618.838 232.863 622.238 232.261 625.42 231.01C626.461 230.711 627.361 230.052 627.96 229.15C628.231 228.518 628.37 227.838 628.37 227.15C628.958 220.22 629.192 213.264 629.07 206.31C629.105 204.648 628.763 203.001 628.07 201.49C627.358 199.954 625.756 199.033 624.07 199.19C622.28 199.52 621.21 201.34 620.51 203.02C618.948 206.798 618.071 210.824 617.92 214.91C617.92 216.41 617.56 217.49 615.92 217.64C614.28 217.79 614.61 218.49 614.43 220.03C614.023 223.397 613.623 226.757 613.23 230.11Z" id="Path" fill="#AD7840" stroke="none" />
    <path d="M613.65 227.14C618.853 226.225 622.684 221.761 622.8 216.48C620.977 218.821 618.016 219.974 615.09 219.48C614.805 219.971 614.58 220.495 614.42 221.04C614.29 221.71 614.18 222.39 614.08 223.04C613.88 224.41 613.74 225.77 613.65 227.14Z" id="Path" fill="#573C20" stroke="none" />
    <path d="M603 211.4C601.73 225.27 616.08 222.35 623.49 218.98C629 211.56 636.29 193.98 626.02 187.67C610.88 179.09 604.88 191.16 603 211.4Z" id="Path" fill="#AD7840" stroke="none" />
    <path d="M643.5 194.84C645.355 193.235 646.046 190.662 645.244 188.343C644.443 186.024 642.31 184.427 639.86 184.31C640.492 182.033 639.85 179.592 638.18 177.92C636.052 175.781 632.806 175.216 630.08 176.51C630.52 173.56 627.99 170.72 625.08 170.15C622.17 169.58 619.08 170.86 616.88 172.83C614.915 170.666 611.827 169.923 609.093 170.956C606.359 171.989 604.534 174.588 604.49 177.51C601.777 177.188 599.206 178.799 598.314 181.381C597.421 183.963 598.448 186.818 600.78 188.24C599.331 189.562 598.871 191.653 599.629 193.461C600.388 195.27 602.202 196.406 604.16 196.3C604.896 196.302 605.619 196.112 606.26 195.75C606.61 195.53 607.69 194.32 607.26 193.82C608.316 195.155 609.928 195.93 611.63 195.92C613.362 195.826 614.746 194.442 614.84 192.71C615.119 194.391 616.469 195.688 618.16 195.9C619.772 195.885 621.233 194.948 621.92 193.49C621.669 194.574 622.098 195.702 623.006 196.345C623.915 196.987 625.121 197.017 626.06 196.42C624.614 197.767 623.651 199.552 623.32 201.5C623.061 203.003 623.422 204.547 624.32 205.78C625.151 206.888 626.503 207.477 627.88 207.33C628.88 207.12 629.88 205.67 630.24 204.79C630.353 205.525 630.326 206.275 630.16 207C630.1 207.619 630.1 208.241 630.16 208.86C630.159 209.5 630.051 210.136 629.84 210.74C629.69 211.15 628.99 211.95 628.98 212.31C628.92 214.66 628.85 217.02 628.79 219.37C630.41 218.38 631.41 216.629 631.44 214.73C633.003 215.595 634.909 215.561 636.44 214.64C637.947 213.696 638.963 212.139 639.22 210.38C639.445 208.635 639.052 206.866 638.11 205.38C639.661 205.92 641.381 205.613 642.65 204.57C643.897 203.521 644.689 202.03 644.86 200.41C645.09 198.64 644.84 196.1 643.5 194.84Z" id="Path" fill="#351B6B" stroke="none" />
    <path d="M631.09 202.83C631.667 202.814 632.233 202.99 632.7 203.33C633.829 204.161 634.529 205.451 634.61 206.85C634.688 208.236 634.391 209.618 633.75 210.85C633.293 211.848 632.608 212.725 631.75 213.41C630.878 214.091 629.763 214.381 628.67 214.21C628.27 214.151 627.91 213.935 627.67 213.61C627.523 213.336 627.444 213.031 627.44 212.72C627.24 210 627.44 206.6 629.04 204.23C629.474 203.475 630.229 202.959 631.09 202.83L631.09 202.83Z" id="Path" fill="#AD7840" stroke="none" />
    <path d="M629.27 209.05C629.195 209.902 629.575 210.731 630.27 211.23C630.63 211.45 631.19 211.46 631.39 211.08C631.494 210.865 631.494 210.615 631.39 210.4C631.275 210.193 631.148 209.992 631.01 209.8C630.711 209.282 630.629 208.668 630.78 208.09C630.856 207.794 630.989 207.516 631.17 207.27C631.37 207 631.69 206.87 631.89 206.62C632.22 206.19 631.65 205.94 631.24 205.95C630.67 205.95 630.18 206.56 629.9 207.01C629.503 207.618 629.285 208.324 629.27 209.05L629.27 209.05Z" id="Path" fill="#573C20" stroke="none" />
    <path d="M614.79 205.64C614.811 205.871 614.887 206.094 615.01 206.29C615.133 206.491 615.345 206.621 615.58 206.64C615.863 206.631 616.125 206.49 616.29 206.26C616.658 205.74 616.85 205.117 616.84 204.48C616.871 204.215 616.85 203.947 616.78 203.69C616.709 203.434 616.525 203.224 616.28 203.12C615.14 202.73 614.71 205 614.79 205.64Z" id="Path" fill="#351B6B" stroke="none" />
    <path d="M614.54 200.43C615.272 199.95 616.197 199.871 617 200.22C617.806 200.59 618.371 201.342 618.5 202.22" id="Path" fill="none" fill-rule="evenodd" stroke="#351B6B" stroke-width="0.5" stroke-linecap="round" stroke-linejoin="round" />
    <path d="M606.05 204.11C606.071 204.341 606.147 204.564 606.27 204.76C606.396 204.958 606.606 205.088 606.84 205.11C607.122 205.098 607.382 204.954 607.54 204.72C607.911 204.201 608.107 203.578 608.1 202.94C608.132 202.679 608.111 202.414 608.04 202.16C607.971 201.899 607.782 201.687 607.53 201.59C606.4 201.2 606 203.44 606.05 204.11Z" id="Path" fill="#351B6B" stroke="none" />
    <path d="M609.88 199.63C609.437 199.045 608.778 198.663 608.05 198.57C607.327 198.496 606.604 198.72 606.05 199.19" id="Path" fill="none" fill-rule="evenodd" stroke="#351B6B" stroke-width="0.5" stroke-linecap="round" stroke-linejoin="round" />
    <path d="M608.31 214.77C609.631 215.21 611.059 215.21 612.38 214.77C613.696 214.314 614.832 213.448 615.62 212.3C615.855 212.023 615.961 211.659 615.91 211.3C613.762 212.236 611.297 212.095 609.27 210.92C609.268 212.262 608.938 213.584 608.31 214.77L608.31 214.77Z" id="Path" fill="#FFFFFF" stroke="none" />
    <path d="M608.94 205.91C608.432 206.245 607.953 206.623 607.51 207.04C607.064 207.473 606.855 208.095 606.95 208.71C607.074 209.142 607.37 209.504 607.77 209.71C608.719 210.118 609.822 209.881 610.52 209.12C611.186 208.358 611.587 207.4 611.66 206.39C611.745 205.637 611.775 204.878 611.75 204.12C611.765 203.88 611.735 203.639 611.66 203.41C611.55 203.12 611.18 202.81 610.86 203.02C610.54 203.23 610.65 203.6 610.57 203.85C610.24 204.681 609.673 205.398 608.94 205.91L608.94 205.91Z" id="Path" fill="#AD5418" stroke="none" />
    <path d="M671.22 254.93C672.8 256.24 674.45 257.66 675.07 259.62C675.81 262 674.82 264.56 673.57 266.71C668.17 275.99 658.09 281.4 650.87 289.34C651.29 288.88 646.87 284.01 646.32 283.62C645.77 283.23 651.78 273.51 652.32 272.62C654.32 269.35 656.94 266.24 658.61 262.87L648.28 257.69L643.12 255.1C641.74 254.41 640.4 253.91 639.46 252.65C638.84 251.675 638.419 250.588 638.22 249.45C636.89 243.91 635.39 238.06 638.7 232.91C638.99 232.347 639.478 231.913 640.07 231.69C640.811 231.601 641.557 231.822 642.13 232.3C644.13 233.56 646.01 234.97 647.9 236.37C651.84 239.29 655.76 242.19 659.53 245.31L671.22 254.93Z" id="Path" fill="#AD7840" stroke="none" />
    <path d="M662.12 262C662.905 262.027 663.648 262.361 664.19 262.93C664.296 263.045 664.369 263.187 664.4 263.34C664.434 263.499 664.366 263.662 664.23 263.75C664.04 263.86 663.81 263.75 663.61 263.65C662.06 262.892 660.318 262.617 658.61 262.86C659.651 262.19 660.887 261.887 662.12 262Z" id="Path" fill="#573C20" stroke="none" />
    <path d="M670.5 262.18C670.764 263.078 671.446 263.793 672.33 264.1C671.728 263.501 671.371 262.698 671.33 261.85C671.305 261.01 671.434 260.173 671.71 259.38C671.3 259.63 670.8 259.89 670.62 260.38C670.385 260.951 670.343 261.583 670.5 262.18L670.5 262.18Z" id="Path" fill="#573C20" stroke="none" />
    <path d="M660.18 245C660.402 245.155 660.584 245.36 660.71 245.6C660.98 246.2 660.57 246.87 660.19 247.4C657.133 251.67 655.029 256.546 654.02 261.7C649.89 260.729 645.925 259.159 642.25 257.04C641.134 256.443 640.104 255.696 639.19 254.82C636.72 252.3 636.12 248.53 635.86 245.01C635.571 242.34 635.696 239.642 636.23 237.01C636.637 235.216 637.451 233.539 638.61 232.11C639 231.64 639.94 230.41 640.61 230.38C641.28 230.35 642.74 231.73 643.34 232.14C647.06 234.74 650.707 237.44 654.28 240.24C656.26 241.8 658.23 243.41 660.18 245Z" id="Path" fill="#1177CC" stroke="none" />
    <path d="M643.42 296.13C643.29 297.011 643.404 297.91 643.75 298.73C644.177 299.41 644.755 299.982 645.44 300.4C646.84 301.4 648.37 302.46 650.1 302.48C651.83 302.5 653.36 301.48 654.79 300.48C655.29 300.14 655.85 299.63 655.68 299.06C655.51 298.49 654.83 298.37 654.28 298.45C653.745 298.609 653.184 298.657 652.63 298.59C652.826 298.185 652.861 297.72 652.73 297.29C652.56 296.88 651.94 296.67 651.66 297.02C651.899 296.609 651.864 296.094 651.57 295.72C651.271 295.348 650.779 295.191 650.32 295.32C650.745 293.498 650.954 291.631 650.94 289.76C650.92 287.876 650.395 286.032 649.42 284.42C648.98 283.73 648.19 282.73 647.26 282.78C646.33 282.83 646 283.78 645.73 284.42C644.864 286.787 644.257 289.242 643.92 291.74C643.69 293.23 643.52 294.68 643.42 296.13Z" id="Path" fill="#AD7840" stroke="none" />
    <path d="M649.4 298.76C650.061 299.193 650.866 299.347 651.64 299.19C652.07 299.04 652.47 298.69 652.92 298.79C652.252 298.541 651.527 298.489 650.83 298.64C650.673 298.697 650.505 298.714 650.34 298.69C650.17 298.69 650.01 298.51 650.04 298.35C650.07 298.19 650.32 298.07 650.52 298.01C651.004 297.862 651.419 297.547 651.69 297.12C651.14 297.075 650.594 297.247 650.17 297.6C650.536 296.897 650.584 296.07 650.3 295.33C650.352 296.538 650.039 297.733 649.4 298.76L649.4 298.76Z" id="Path" fill="#573C20" stroke="none" />
  </g>
</svg>