<svg width="775" height="536" viewBox="0 0 775 536" fill="none" xmlns="http://www.w3.org/2000/svg">
<path d="M403.198 119.358C393.14 126.192 379.405 123.57 372.566 113.513C365.726 103.455 368.353 89.715 378.411 82.8654C388.463 76.0311 402.203 78.6577 409.043 88.7154C415.887 98.7679 413.266 112.513 403.198 119.358ZM416.846 83.4111C407.079 69.0183 387.484 65.2951 373.106 75.0723C358.719 84.8494 354.985 104.439 364.768 118.817C373.417 131.557 389.754 135.923 403.361 129.991L415.545 149.78L425.215 143.211L413.036 123.422C423.563 112.952 425.511 96.1362 416.846 83.4111ZM81 127.52C85.529 129.968 92.5061 131.804 100.34 131.804C117.477 131.804 126.168 123.603 126.168 112.342C126.045 103.651 121.394 97.8979 110.01 93.9809C102.666 91.5328 100.34 89.9415 100.34 87.1262C100.34 84.1885 102.911 82.3524 107.44 82.3524C112.458 82.3524 117.722 84.3109 120.415 85.6573L123.597 72.9272C119.925 71.0911 113.805 69.3774 106.828 69.3774C92.0165 69.3774 82.4689 77.8234 82.4689 89.0847C82.3465 96.0618 87.1203 102.794 99.6056 106.956C106.46 109.159 108.296 110.75 108.296 113.811C108.296 116.871 105.971 118.707 100.34 118.707C94.8318 118.707 87.7323 116.381 84.3049 114.3L81 127.52ZM159.095 131.927C175.007 131.927 190.553 121.889 190.553 100.101C190.553 81.9852 178.312 69.3774 160.074 69.3774C140.734 69.3774 128.004 81.7404 128.004 101.08C128.004 120.42 141.468 131.927 158.972 131.927H159.095ZM159.339 118.584C151.506 118.584 147.221 110.873 147.221 100.713C147.221 91.7776 150.649 82.7196 159.462 82.7196C167.908 82.7196 171.335 91.7776 171.335 100.591C171.335 111.362 166.806 118.584 159.462 118.584H159.339ZM195.939 130.58H214.544V96.0618C214.544 94.3481 214.667 92.6344 215.156 91.4104C216.503 87.983 219.563 84.4333 224.704 84.4333C231.436 84.4333 234.129 89.6967 234.129 97.4082V130.58H252.735V95.2049C252.735 77.5786 243.554 69.3774 231.314 69.3774C221.277 69.3774 215.279 75.1305 212.831 79.0474H212.463L211.607 70.7239H195.449C195.694 76.1097 195.939 82.3524 195.939 89.8191V130.58ZM311.367 95.2049C311.367 81.1283 305.124 69.3774 285.172 69.3774C274.278 69.3774 266.077 72.4375 261.915 74.7632L265.343 86.6366C269.259 84.3109 275.747 82.23 281.867 82.23C291.048 82.23 292.761 86.759 292.761 89.9415V90.6759C271.585 90.6759 257.631 98.0203 257.631 113.566C257.631 123.113 264.853 131.927 276.971 131.927C284.071 131.927 290.191 129.356 294.108 124.582H294.475L295.577 130.58H312.346C311.612 127.275 311.367 121.767 311.367 116.136V95.2049ZM293.373 108.792C293.373 109.894 293.251 110.995 293.006 111.974C291.782 115.769 287.865 118.829 283.336 118.829C279.174 118.829 275.992 116.503 275.992 111.73C275.992 104.63 283.581 102.304 293.373 102.304V108.792ZM320.058 130.58H338.663V100.346C338.663 98.7547 338.786 97.4082 339.031 96.1842C340.255 90.3087 344.906 86.759 351.761 86.759C353.842 86.759 355.31 87.0038 356.779 87.2486V69.7446C355.433 69.4998 354.576 69.3774 352.862 69.3774C346.987 69.3774 339.765 73.0496 336.705 81.8628H336.215L335.481 70.7239H319.568C319.935 75.8649 320.058 81.6179 320.058 90.4311V130.58ZM478.234 71.6678H467.462V107.9C467.462 109.981 467.095 111.939 466.483 113.408C464.524 118.304 459.506 123.323 452.284 123.323C442.614 123.323 439.064 115.611 439.064 104.35V71.6678H428.292V106.308C428.292 126.995 439.431 132.258 448.734 132.258C459.261 132.258 465.626 126.016 468.319 121.242H468.564L469.176 130.912H478.723C478.356 126.261 478.234 120.875 478.234 114.632V71.6678ZM489.985 115.611C489.985 120.875 489.862 126.873 489.495 130.912H498.798L499.41 121.12H499.655C504.184 128.953 510.916 132.258 519.484 132.258C532.704 132.258 546.169 121.732 546.169 100.433C546.169 82.5618 535.887 70.3213 521.198 70.3213C511.65 70.3213 504.796 74.4831 501.001 81.093H500.756V44.0042H489.985V115.611ZM500.756 96.5161C500.756 94.8024 501.001 93.3335 501.368 91.9871C503.449 83.9083 510.304 78.7673 517.648 78.7673C529.154 78.7673 535.275 88.9269 535.275 100.923C535.275 114.51 528.665 123.69 517.281 123.69C509.57 123.69 503.204 118.549 501.124 111.082C500.879 109.858 500.756 108.512 500.756 107.165V96.5161ZM601.129 103.248C601.374 102.024 601.496 100.433 601.496 98.2297C601.496 87.3357 596.477 70.3213 577.137 70.3213C559.878 70.3213 549.229 84.3979 549.229 102.269C549.229 120.018 560.245 132.136 578.361 132.136C587.787 132.136 594.396 130.055 598.191 128.341L596.233 120.63C592.316 122.344 587.542 123.69 579.83 123.69C569.059 123.69 559.878 117.692 559.633 103.248H601.129ZM559.756 95.5368C560.613 88.0701 565.264 78.0328 576.28 78.0328C588.276 78.0328 591.214 88.6821 591.092 95.5368H559.756Z" fill="#161614"/>
<path d="M675.917 130.706H668.389C668.389 70.0695 618.356 20.7401 556.862 20.7401V13.2122C622.512 13.2122 675.917 65.9077 675.917 130.706ZM681.119 90.2613C672.087 52.2238 641.261 20.4749 602.611 9.37681L604.345 3.34325C645.137 15.0585 677.671 48.5975 687.219 88.8077L681.119 90.2613ZM689.596 54.5648C680.283 34.2557 664.401 16.5426 644.913 4.69481L647.519 0.405518C667.869 12.7787 684.419 31.2568 694.15 52.4686L689.596 54.5648Z" fill="#499CD2"/>
<path fill-rule="evenodd" clip-rule="evenodd" d="M473.511 478.866V456.193C473.511 453.214 475.373 450.821 478.458 450.821H479.311C482.395 450.821 484.249 453.217 484.249 456.193V503.926C484.249 515.565 478.498 524.827 468.477 530.727C463.886 533.447 458.646 534.876 453.311 534.864H451.181C439.538 534.864 430.289 529.109 424.379 519.095C421.656 514.505 420.227 509.263 420.244 503.926V501.799C420.244 490.155 425.998 480.899 436.011 474.987C440.6 472.262 445.843 470.832 451.181 470.851H453.311C461.19 470.851 467.874 473.905 473.511 478.866ZM430.981 502.86C430.981 511.268 435.056 517.59 442.423 521.622C445.403 523.252 448.637 524.127 452.036 524.127C460.289 524.127 466.411 520.234 470.633 513.24C472.596 509.987 473.511 506.427 473.511 502.643C473.511 495.354 470.061 489.666 464.187 485.441C460.626 482.88 456.617 481.596 452.245 481.596C443.249 481.596 436.775 486.141 432.89 494.213C431.579 496.943 430.981 499.841 430.981 502.86ZM521.498 470.851H522.987C535.427 470.851 544.889 476.886 550.884 487.745C553.282 492.089 554.565 496.831 554.565 501.799V503.926C554.565 515.565 548.825 524.84 538.789 530.729C534.143 533.454 529.01 534.864 523.625 534.864H521.498C509.856 534.864 500.604 529.109 494.697 519.095C491.972 514.505 490.541 509.263 490.558 503.926V501.799C490.558 490.153 496.334 480.928 506.322 474.99C510.966 472.231 516.103 470.851 521.498 470.851ZM501.295 502.86C501.295 511.022 505.3 517.026 512.194 521.248C515.43 523.229 518.996 524.127 522.777 524.127C530.842 524.127 536.803 520.038 540.952 513.232C542.931 509.987 543.826 506.421 543.826 502.643C543.826 495.053 540.17 489.256 533.921 485.054C530.497 482.75 526.685 481.596 522.561 481.596C513.565 481.596 507.091 486.141 503.207 494.213C501.894 496.943 501.295 499.841 501.295 502.86ZM599.201 482.453C597.58 481.694 594.546 481.442 592.794 481.375C583.823 481.037 577.333 486.089 573.525 494.003C572.21 496.733 571.61 499.622 571.61 502.643C571.61 511.839 576.439 518.278 584.648 522.204C587.646 523.637 591.518 523.908 594.795 523.908C597.677 523.908 601.751 522.143 604.309 520.928L604.752 520.717H606.738L606.957 520.762C609.399 521.27 611.242 522.818 611.242 525.445V526.508C611.242 533.046 599.294 534.542 594.735 534.861C578.648 535.974 566.616 527.138 562.029 511.794C561.233 509.129 560.874 506.482 560.874 503.705V501.581C560.874 489.937 566.652 480.714 576.638 474.782C581.282 472.025 586.417 470.639 591.812 470.639H593.94C599.663 470.639 604.934 472.264 609.659 475.492L610.047 475.76L610.292 476.165C610.802 477.01 611.242 477.989 611.242 478.995V480.057C611.242 482.798 609.191 484.273 606.716 484.749L606.511 484.785H605.876C604.274 484.785 600.631 483.127 599.201 482.453ZM634.029 489.724C638.2 485.547 642.385 481.379 646.618 477.272C647.797 476.126 652.263 471.276 654.021 471.276H655.945L656.164 471.322C658.614 471.831 660.448 473.381 660.448 476.014V477.075C660.448 478.871 658.345 480.958 657.185 482.187C654.718 484.802 652.122 487.331 649.597 489.892L636.624 503.061C642.21 508.659 647.79 514.261 653.33 519.902C654.867 521.46 656.391 523.028 657.904 524.608C658.438 525.169 659.225 525.868 659.672 526.645C660.153 527.374 660.448 528.196 660.448 529.073V530.181L660.386 530.438C659.783 532.888 658.228 534.864 655.514 534.864H654.659C652.882 534.864 650.876 532.854 649.659 531.706C647.151 529.342 644.731 526.856 642.272 524.441L634.029 516.348V529.282C634.029 532.261 632.164 534.656 629.083 534.656H628.238C625.154 534.656 623.291 532.261 623.291 529.282V456.401C623.291 453.422 625.155 451.039 628.238 451.039H629.083C632.164 451.039 634.029 453.422 634.029 456.401V489.724ZM767.853 471.276H768.92C772.141 471.276 774.29 473.446 774.29 476.649C774.29 481.094 770.04 482.232 766.364 482.232C761.542 482.232 756.937 485.151 753.613 488.425C749.468 492.512 747.654 497.746 747.654 503.499V529.493C747.654 532.472 745.793 534.864 742.707 534.864H741.859C738.773 534.864 736.914 532.473 736.914 529.493V502.006C736.914 491.452 742.052 482.836 750.618 476.793C755.733 473.183 761.591 471.276 767.853 471.276ZM691.539 522.79C695.446 524.155 699.901 523.96 703.91 523.261C705.961 522.39 711.204 520.102 713.133 520.437L713.434 520.489L713.711 520.624C714.889 521.195 716.012 522.003 716.614 523.202C718.019 526.011 717.344 528.835 714.584 530.429L713.665 530.96C703.48 536.838 692.647 536.023 682.494 530.533C677.64 527.909 673.927 524.014 671.187 519.265L670.547 518.155C664.008 506.831 664.891 494.92 672.265 484.152C674.811 480.43 678.138 477.555 682.027 475.306L683.499 474.457C693.091 468.919 703.371 469.299 713.222 474.159C718.519 476.772 722.811 480.667 725.768 485.79L726.3 486.713C728.447 490.435 725.665 493.677 722.793 495.894C719.459 498.466 716.093 501.562 712.897 504.319C705.772 510.47 698.658 516.635 691.539 522.79ZM682.317 516.314C690.285 509.482 698.255 502.644 706.202 495.783C708.918 493.442 711.896 491.011 714.589 488.549C712.428 485.825 708.817 483.861 705.749 482.69C699.555 480.33 693.448 481.123 687.768 484.402C680.334 488.694 677.168 495.53 677.445 504.037C677.556 507.387 678.456 510.616 680.234 513.466C680.861 514.471 681.56 515.414 682.317 516.314ZM624.371 301.15H656.056V333.54H672.075C679.475 333.54 687.084 332.223 694.09 329.849C697.533 328.681 701.396 327.057 704.793 325.013C700.32 319.174 698.036 311.8 697.365 304.533C696.451 294.646 698.446 281.778 705.136 274.041L708.467 270.189L712.436 273.38C722.428 281.407 730.832 292.626 732.313 305.414C744.345 301.875 758.472 302.712 769.077 308.832L773.428 311.343L771.139 315.813C762.169 333.317 743.417 338.741 725.084 337.78C697.652 406.107 637.928 438.454 565.514 438.454C528.101 438.454 493.778 424.468 474.232 391.276L473.911 390.735L471.064 384.941C464.457 370.33 462.262 354.324 463.75 338.331L464.198 333.54H491.293V301.15H522.977V269.465H586.348V237.781H624.371V301.15Z" fill="#364548"/>
<path fill-rule="evenodd" clip-rule="evenodd" d="M727.024 313.134C729.148 296.622 716.792 283.653 709.129 277.495C700.298 287.705 698.927 314.462 712.781 325.728C705.049 332.595 688.757 338.82 672.075 338.82H469.011C467.39 356.234 470.447 372.27 477.429 385.995L479.739 390.221C481.202 392.702 482.8 395.1 484.527 397.405C492.875 397.941 500.573 398.125 507.615 397.97H507.618C521.456 397.665 532.748 396.03 541.306 393.065C541.911 392.877 542.566 392.931 543.131 393.217C543.697 393.502 544.129 393.997 544.336 394.596C544.544 395.194 544.511 395.85 544.243 396.425C543.976 396.999 543.495 397.447 542.904 397.674C541.765 398.07 540.579 398.438 539.354 398.789H539.35C532.611 400.714 525.385 402.008 516.062 402.583C516.616 402.593 515.485 402.666 515.483 402.666C515.165 402.687 514.766 402.733 514.448 402.749C510.778 402.956 506.818 402.999 502.769 402.999C498.341 402.999 493.98 402.916 489.104 402.666L488.979 402.749C505.898 421.766 532.353 433.172 565.515 433.172C635.697 433.172 695.225 402.061 721.587 332.216C740.288 334.135 758.261 329.365 766.437 313.405C753.414 305.891 736.667 308.286 727.024 313.134Z" fill="#22A0C8"/>
<path fill-rule="evenodd" clip-rule="evenodd" d="M727.024 313.134C729.149 296.622 716.792 283.653 709.13 277.495C700.299 287.705 698.927 314.462 712.781 325.728C705.049 332.595 688.757 338.82 672.075 338.82H481.036C480.208 365.488 490.104 385.732 507.614 397.97H507.618C521.457 397.665 532.748 396.03 541.306 393.065C541.911 392.877 542.566 392.931 543.131 393.217C543.697 393.502 544.129 393.997 544.337 394.596C544.544 395.194 544.511 395.85 544.243 396.425C543.976 396.999 543.496 397.447 542.904 397.674C541.765 398.07 540.579 398.438 539.354 398.789H539.35C532.611 400.714 524.764 402.174 515.441 402.749C515.439 402.749 515.216 402.535 515.213 402.535C539.098 414.787 573.73 414.742 613.436 399.49C657.958 382.385 699.388 349.8 728.295 312.529C727.86 312.726 727.436 312.927 727.024 313.134Z" fill="#37B1D9"/>
<path fill-rule="evenodd" clip-rule="evenodd" d="M469.393 359.978C470.654 369.306 473.383 378.04 477.429 385.995L479.739 390.221C481.202 392.702 482.8 395.1 484.527 397.405C492.877 397.941 500.574 398.125 507.618 397.97C521.457 397.665 532.748 396.03 541.306 393.065C541.911 392.876 542.566 392.931 543.131 393.217C543.697 393.502 544.129 393.997 544.337 394.595C544.544 395.194 544.511 395.85 544.243 396.424C543.976 396.999 543.496 397.447 542.904 397.673C541.765 398.07 540.579 398.438 539.354 398.789H539.35C532.611 400.714 524.806 402.091 515.483 402.667C515.163 402.687 514.604 402.691 514.282 402.709C510.615 402.914 506.695 403.04 502.645 403.04C498.217 403.04 493.689 402.956 488.816 402.708C505.735 421.725 532.353 433.172 565.515 433.172C625.598 433.172 677.871 410.366 708.211 359.978H469.393Z" fill="#1B81A5"/>
<path fill-rule="evenodd" clip-rule="evenodd" d="M482.864 359.978C486.456 376.356 495.087 389.214 507.618 397.97C521.457 397.665 532.749 396.03 541.306 393.065C541.911 392.876 542.566 392.931 543.132 393.217C543.697 393.502 544.129 393.997 544.337 394.595C544.544 395.194 544.511 395.85 544.244 396.424C543.976 396.999 543.496 397.447 542.904 397.673C541.765 398.07 540.579 398.438 539.354 398.789H539.35C532.611 400.714 524.641 402.091 515.317 402.667C539.2 414.917 573.733 414.741 613.436 399.49C637.456 390.261 660.573 376.524 681.312 359.978H482.864Z" fill="#1D91B4"/>
<path fill-rule="evenodd" clip-rule="evenodd" d="M496.572 306.431H524.034V333.892H496.572V306.431ZM498.86 308.72H501.027V331.604H498.86V308.72ZM502.934 308.72H505.188V331.604H502.935L502.934 308.72ZM507.094 308.72H509.348V331.604H507.094V308.72ZM511.256 308.72H513.509V331.604H511.256V308.72ZM515.417 308.72H517.671V331.604H515.417V308.72ZM519.577 308.72H521.746V331.604H519.577V308.72ZM528.257 274.746H555.72V302.206H528.256L528.257 274.746ZM530.546 277.035H532.712V299.918H530.546V277.035ZM534.62 277.035H536.873V299.918H534.622L534.62 277.035ZM538.78 277.035H541.033V299.918H538.78V277.035ZM542.941 277.035H545.194V299.918H542.941V277.035ZM547.102 277.035H549.357V299.918H547.102V277.035ZM551.262 277.035H553.432V299.918H551.262V277.035Z" fill="#23A3C2"/>
<path fill-rule="evenodd" clip-rule="evenodd" d="M528.258 306.431H555.72V333.892H528.256L528.258 306.431ZM530.547 308.72H532.713V331.604H530.547V308.72ZM534.621 308.72H536.874V331.604H534.622L534.621 308.72ZM538.781 308.72H541.034V331.604H538.781V308.72ZM542.942 308.72H545.195V331.604H542.942V308.72ZM547.103 308.72H549.357V331.604H547.103V308.72ZM551.263 308.72H553.433V331.604H551.263V308.72Z" fill="#34BBDE"/>
<path fill-rule="evenodd" clip-rule="evenodd" d="M559.944 306.431H587.405V333.892H559.944V306.431ZM562.232 308.72H564.397V331.604H562.232V308.72ZM566.305 308.72H568.559V331.604H566.305V308.72ZM570.467 308.72H572.72V331.604H570.467V308.72ZM574.628 308.72H576.881V331.604H574.628V308.72ZM578.788 308.72H581.044V331.604H578.788V308.72ZM582.949 308.72H585.116V331.604H582.949V308.72Z" fill="#23A3C2"/>
<path fill-rule="evenodd" clip-rule="evenodd" d="M559.944 274.746H587.405V302.206H559.944V274.746ZM562.232 277.035H564.397V299.918H562.232V277.035ZM566.305 277.035H568.559V299.918H566.305V277.035ZM570.467 277.035H572.72V299.918H570.467V277.035ZM574.628 277.035H576.881V299.918H574.628V277.035ZM578.788 277.035H581.044V299.918H578.788V277.035ZM582.949 277.035H585.116V299.918H582.949V277.035ZM591.629 306.431H619.09V333.892H591.629V306.431ZM593.918 308.72H596.084V331.604H593.918V308.72ZM597.992 308.72H600.245V331.604H597.992V308.72ZM602.152 308.72H604.405V331.604H602.152V308.72ZM606.313 308.72H608.567V331.604H606.313V308.72ZM610.474 308.72H612.728V331.604H610.474V308.72ZM614.635 308.72H616.802V331.604H614.635V308.72Z" fill="#34BBDE"/>
<path fill-rule="evenodd" clip-rule="evenodd" d="M591.628 274.746H619.09V302.206H591.628V274.746ZM593.918 277.035H596.083V299.918H593.918V277.035ZM597.991 277.035H600.245V299.918H597.991V277.035ZM602.151 277.035H604.404V299.918H602.151V277.035ZM606.312 277.035H608.567V299.918H606.312V277.035ZM610.474 277.035H612.728V299.918H610.474V277.035ZM614.635 277.035H616.802V299.918H614.635V277.035Z" fill="#23A3C2"/>
<path fill-rule="evenodd" clip-rule="evenodd" d="M591.628 243.06H619.09V270.524H591.628V243.06ZM593.918 245.348H596.083V268.233H593.918V245.348ZM597.991 245.348H600.245V268.233H597.991V245.348ZM602.151 245.348H604.404V268.233H602.151V245.348ZM606.312 245.348H608.567V268.233H606.312V245.348ZM610.474 245.348H612.728V268.233H610.474V245.348ZM614.635 245.348H616.802V268.233H614.635V245.348Z" fill="#34BBDE"/>
<path fill-rule="evenodd" clip-rule="evenodd" d="M623.313 306.431H650.775V333.892H623.313V306.431ZM625.6 308.72H627.768V331.604H625.601V308.72H625.6ZM629.674 308.72H631.928V331.604H629.675L629.674 308.72ZM633.836 308.72H636.091V331.604H633.836V308.72ZM637.996 308.72H640.251V331.604H637.996V308.72ZM642.159 308.72H644.412V331.604H642.159V308.72ZM646.318 308.72H648.486V331.604H646.318V308.72Z" fill="#23A3C2"/>
<path fill-rule="evenodd" clip-rule="evenodd" d="M554.001 378.415C555.004 378.402 556 378.588 556.931 378.963C557.862 379.338 558.71 379.894 559.424 380.599C560.138 381.304 560.706 382.144 561.093 383.07C561.48 383.996 561.679 384.989 561.679 385.993C561.678 386.996 561.479 387.99 561.092 388.916C560.704 389.842 560.137 390.681 559.422 391.386C558.708 392.091 557.86 392.647 556.929 393.021C555.998 393.396 555.001 393.581 553.998 393.568C552.006 393.54 550.106 392.73 548.707 391.312C547.308 389.894 546.525 387.982 546.525 385.99C546.525 383.998 547.31 382.087 548.709 380.669C550.108 379.251 552.009 378.442 554.001 378.415Z" fill="#D3ECEC"/>
<path fill-rule="evenodd" clip-rule="evenodd" d="M554 380.565C554.693 380.565 555.354 380.695 555.964 380.932C555.543 381.176 555.214 381.552 555.029 382.002C554.843 382.451 554.811 382.95 554.937 383.42C555.062 383.89 555.339 384.305 555.725 384.602C556.111 384.898 556.583 385.06 557.07 385.061C557.908 385.061 558.635 384.597 559.012 383.91C559.459 384.985 559.547 386.175 559.265 387.304C558.983 388.433 558.345 389.442 557.446 390.181C556.547 390.92 555.434 391.35 554.271 391.408C553.109 391.466 551.959 391.148 550.99 390.502C550.022 389.856 549.288 388.915 548.895 387.82C548.502 386.724 548.473 385.531 548.81 384.417C549.147 383.303 549.834 382.327 550.769 381.633C551.703 380.94 552.836 380.565 554 380.565ZM420 362.716H772.414C764.742 360.77 748.137 358.14 750.876 348.083C736.922 364.229 703.273 359.411 694.781 351.45C685.325 365.166 630.272 359.951 626.432 349.266C614.576 363.18 577.841 363.18 565.985 349.266C562.143 359.951 507.091 365.166 497.634 351.449C489.142 359.411 455.495 364.229 441.542 348.084C444.28 358.14 427.675 360.769 420 362.716Z" fill="#364548"/>
<path fill-rule="evenodd" clip-rule="evenodd" d="M574.138 433.008C555.376 424.105 545.079 412.001 539.35 398.79C532.38 400.779 524.003 402.051 514.269 402.597C510.602 402.802 506.745 402.907 502.698 402.907C498.031 402.907 493.114 402.769 487.951 402.496C505.157 419.692 526.323 432.931 565.515 433.172C568.409 433.172 571.28 433.116 574.138 433.008Z" fill="#BDD9D7"/>
<path fill-rule="evenodd" clip-rule="evenodd" d="M546.318 410.982C543.723 407.458 541.205 403.029 539.354 398.788C532.384 400.779 524.005 402.051 514.269 402.598C520.956 406.227 530.517 409.59 546.318 410.982Z" fill="#D3ECEC"/>
<path d="M109 280.781C48.8089 280.781 0 329.581 0 389.781C0 437.941 31.2319 478.799 74.5414 493.212C79.9886 494.221 81.989 490.847 81.989 487.968C81.989 485.369 81.8873 476.782 81.8412 467.674C51.5163 474.268 45.1176 454.814 45.1176 454.814C40.1593 442.215 33.0151 438.865 33.0151 438.865C23.126 432.1 33.7606 432.238 33.7606 432.238C44.7064 433.008 50.4699 443.471 50.4699 443.471C60.1915 460.135 75.969 455.317 82.1891 452.533C83.1671 445.487 85.9924 440.679 89.1093 437.957C64.8993 435.2 39.4481 425.854 39.4481 384.088C39.4481 372.189 43.7062 362.464 50.6794 354.831C49.5475 352.085 45.8169 340.999 51.7351 325.985C51.7351 325.985 60.8882 323.056 81.7181 337.158C90.4121 334.743 99.737 333.532 109 333.491C118.264 333.532 127.596 334.743 136.307 337.158C157.112 323.056 166.252 325.985 166.252 325.985C172.185 340.999 168.452 352.085 167.321 354.831C174.309 362.464 178.538 372.188 178.538 384.088C178.538 425.953 153.039 435.172 128.768 437.87C132.677 441.253 136.161 447.887 136.161 458.055C136.161 472.639 136.034 484.378 136.034 487.968C136.034 490.869 137.996 494.268 143.522 493.197C186.807 478.768 218 437.925 218 389.781C218 329.581 169.198 280.781 109 280.781Z" fill="#161614"/>
<path d="M40.8242 436.054C40.5849 436.596 39.7317 436.758 38.9563 436.387C38.1656 436.031 37.721 435.293 37.9775 434.749C38.2126 434.192 39.0657 434.036 39.8548 434.41C40.6473 434.765 41.0986 435.511 40.8242 436.054ZM46.186 440.838C45.6662 441.32 44.6498 441.096 43.9599 440.335C43.2469 439.575 43.1136 438.559 43.641 438.069C44.177 437.588 45.1627 437.813 45.8774 438.574C46.5903 439.342 46.7288 440.352 46.1851 440.839M49.8645 446.959C49.196 447.423 48.1034 446.988 47.429 446.019C46.7613 445.05 46.7613 443.888 47.4435 443.422C48.1205 442.956 49.196 443.375 49.8799 444.336C50.5467 445.322 50.5467 446.485 49.8636 446.96M56.0845 454.049C55.487 454.707 54.2149 454.531 53.2831 453.631C52.3308 452.753 52.0649 451.505 52.6642 450.846C53.2686 450.186 54.5483 450.372 55.487 451.263C56.4333 452.141 56.7214 453.397 56.0845 454.049ZM64.1237 456.442C63.8613 457.295 62.6354 457.684 61.401 457.321C60.1683 456.947 59.3613 455.947 59.61 455.085C59.8665 454.226 61.0975 453.821 62.3413 454.209C63.5724 454.581 64.3802 455.574 64.1237 456.442ZM73.2743 457.457C73.3051 458.356 72.2579 459.102 70.9619 459.118C69.6582 459.146 68.6041 458.419 68.5905 457.535C68.5905 456.627 69.6137 455.888 70.9166 455.867C72.2125 455.841 73.2743 456.564 73.2743 457.457ZM82.2624 457.112C82.418 457.99 81.517 458.891 80.2304 459.13C78.9652 459.361 77.794 458.82 77.6324 457.95C77.4751 457.051 78.3933 456.151 79.6559 455.917C80.9451 455.693 82.0983 456.221 82.2624 457.112Z" fill="#161614"/>
</svg>
